<?xml version="1.0" standalone="no"?>
<!DOCTYPE svg PUBLIC "-//W3C//DTD SVG 20010904//EN"
 "http://www.w3.org/TR/2001/REC-SVG-20010904/DTD/svg10.dtd">
<svg version="1.0" xmlns="http://www.w3.org/2000/svg"
 width="2400.000000pt" height="723.000000pt" viewBox="0 0 2400.000000 723.000000"
 preserveAspectRatio="xMidYMid meet">

<g transform="translate(0.000000,723.000000) scale(0.100000,-0.100000)"
fill="#000000" stroke="none">
<path d="M2450 6924 c-519 -49 -890 -224 -1117 -527 -97 -129 -185 -329 -214
-487 -10 -57 -10 -70 5 -98 9 -17 31 -39 49 -48 43 -23 689 -94 729 -81 42 14
75 60 99 140 31 106 64 164 130 229 177 178 515 207 712 63 89 -66 139 -171
157 -330 9 -81 14 -335 7 -335 -23 0 -573 -64 -653 -75 -474 -71 -769 -190
-994 -402 -107 -100 -170 -186 -235 -318 -93 -187 -133 -392 -122 -620 16
-344 134 -606 351 -781 180 -145 404 -214 691 -214 427 0 705 115 1017 419 43
41 79 73 81 70 3 -2 34 -47 70 -99 86 -125 155 -204 250 -289 129 -115 160
-110 349 56 68 59 173 150 233 202 196 168 205 178 205 232 0 50 4 43 -122
224 -72 104 -114 189 -141 284 -20 74 -21 99 -27 961 -7 843 -8 890 -28 980
-49 226 -116 356 -256 495 -190 189 -483 308 -845 345 -95 9 -298 11 -381 4z
m557 -2256 c-9 -330 -28 -430 -107 -591 -114 -228 -288 -350 -499 -349 -124 1
-212 40 -288 126 -81 92 -116 205 -115 371 1 199 47 321 168 442 57 57 92 81
166 117 153 74 344 112 572 115 l109 1 -6 -232z"/>
<path d="M11325 6919 c-647 -66 -1077 -366 -1241 -865 -44 -134 -53 -213 -30
-248 33 -52 51 -56 373 -92 401 -44 406 -44 448 1 21 22 37 53 45 87 43 182
167 317 343 373 212 68 429 26 551 -105 91 -99 116 -198 116 -457 l0 -161 -37
-6 c-21 -3 -126 -15 -233 -26 -379 -40 -597 -76 -790 -131 -523 -150 -844
-483 -924 -958 -18 -107 -21 -329 -6 -436 69 -481 371 -782 848 -846 110 -15
377 -6 492 16 257 49 462 161 702 384 l86 81 82 -118 c92 -130 270 -315 327
-339 46 -19 97 -10 143 25 19 15 89 74 155 132 66 58 182 158 257 223 186 159
188 170 52 358 -41 57 -93 140 -115 184 -77 157 -72 99 -79 1070 -6 732 -9
885 -23 965 -18 110 -58 243 -95 315 -181 359 -607 569 -1177 580 -99 2 -220
0 -270 -6z m602 -2281 c-6 -286 -14 -350 -68 -490 -87 -224 -275 -394 -459
-416 -281 -33 -460 136 -477 448 -16 284 96 487 332 603 147 73 341 112 569
115 l108 2 -5 -262z"/>
<path d="M6425 6889 c-334 -37 -575 -217 -734 -548 l-46 -96 -5 252 -5 253
-33 32 -32 33 -363 3 c-397 2 -394 3 -434 -57 l-23 -34 2 -1783 3 -1784 33
-32 32 -33 383 -3 c420 -4 424 -3 460 58 16 26 17 111 17 1052 0 578 4 1092
10 1182 17 271 67 430 165 531 146 149 447 151 580 3 70 -77 118 -213 131
-369 4 -43 7 -595 8 -1227 1 -1109 2 -1148 20 -1175 38 -57 42 -57 448 -57
356 0 374 1 406 20 65 40 62 -21 62 1185 0 1094 3 1211 36 1353 40 177 165
313 329 357 79 22 214 16 289 -12 63 -23 140 -93 171 -152 62 -123 58 -44 64
-1424 l6 -1259 37 -34 38 -34 384 0 384 0 32 27 c17 14 36 36 40 49 5 12 10
652 10 1421 2 1252 0 1409 -15 1508 -19 129 -68 281 -116 360 -180 298 -546
471 -925 435 -356 -33 -641 -225 -793 -534 l-49 -99 -37 74 c-156 310 -362
489 -626 542 -99 21 -246 27 -344 16z"/>
<path d="M17985 6889 c-118 -10 -300 -54 -405 -98 -527 -219 -871 -753 -955
-1486 -21 -179 -21 -515 0 -689 36 -308 109 -557 231 -796 226 -440 578 -709
1029 -785 133 -23 367 -23 500 0 300 51 536 175 761 399 357 357 544 872 544
1497 0 272 -23 469 -80 699 -174 696 -619 1153 -1215 1245 -124 19 -291 25
-410 14z m348 -738 c83 -32 168 -114 212 -205 104 -213 153 -611 142 -1136
-13 -536 -81 -798 -252 -959 -67 -64 -140 -98 -231 -110 -271 -34 -453 143
-534 519 -45 206 -55 336 -55 740 0 412 7 517 50 697 31 131 64 212 120 294
62 91 129 142 230 176 63 21 246 11 318 -16z"/>
<path d="M21905 6890 c-177 -16 -347 -83 -469 -187 -116 -96 -253 -300 -327
-483 -13 -32 -14 -9 -19 242 -5 261 -6 278 -26 305 -39 52 -43 53 -419 53
-334 0 -352 -1 -383 -20 -66 -41 -62 87 -61 -1842 0 -1331 3 -1761 12 -1788 7
-19 27 -44 46 -57 34 -23 35 -23 410 -23 355 0 378 1 408 20 17 10 38 29 45
42 10 18 14 244 19 1143 5 1112 5 1121 27 1218 46 203 100 315 196 405 99 94
220 133 345 113 172 -28 278 -141 325 -348 31 -137 36 -343 36 -1431 0 -1063
0 -1084 20 -1112 35 -50 47 -51 458 -48 l382 3 32 33 33 32 0 1328 c0 1424 0
1439 -52 1672 -43 199 -115 341 -237 468 -141 147 -330 236 -559 261 -104 12
-121 12 -242 1z"/>
<path d="M13778 6814 c-55 -30 -58 -46 -58 -364 l0 -290 34 -38 34 -37 612 -5
611 -5 -677 -970 c-372 -533 -685 -990 -696 -1015 -41 -94 -48 -159 -48 -493
0 -345 1 -353 56 -396 38 -30 74 -26 153 14 344 173 718 258 1131 258 393 0
729 -72 1082 -232 73 -34 141 -61 151 -61 37 0 79 32 98 73 17 38 19 68 19
318 0 381 -9 405 -180 493 -291 151 -619 228 -1037 243 -95 3 -173 7 -173 9 0
2 280 403 622 891 343 488 640 922 661 962 l38 75 -3 258 -3 258 -33 32 -32
33 -1168 2 c-1018 2 -1170 0 -1194 -13z"/>
<path d="M14755 2924 c-283 -28 -430 -56 -614 -115 -69 -23 -184 -69 -256
-104 -231 -112 -326 -195 -297 -259 21 -47 45 -48 291 -22 351 39 498 48 736
49 386 0 559 -52 594 -178 6 -22 11 -77 11 -121 0 -210 -91 -540 -296 -1073
-52 -135 -94 -252 -94 -262 0 -34 35 -63 74 -62 47 1 91 31 187 124 244 239
449 600 572 1009 103 338 136 706 75 828 -18 36 -35 53 -74 74 -63 34 -207 73
-344 93 -100 15 -479 28 -565 19z"/>
<path d="M4132 2675 c-27 -23 -32 -34 -32 -71 0 -55 23 -82 205 -238 1296
-1117 2899 -1814 4625 -2010 328 -38 554 -49 965 -50 416 -1 574 7 915 44
1187 129 2372 504 3295 1041 175 102 494 313 559 370 78 69 99 153 54 219 -38
55 -71 74 -142 78 -61 4 -73 0 -302 -91 -1090 -435 -2215 -697 -3394 -792
-1302 -104 -2738 46 -4065 426 -850 243 -1726 610 -2453 1027 -138 79 -182 88
-230 47z"/>
</g>
</svg>
