<?xml version="1.0" standalone="no"?>
<!DOCTYPE svg PUBLIC "-//W3C//DTD SVG 20010904//EN"
 "http://www.w3.org/TR/2001/REC-SVG-20010904/DTD/svg10.dtd">
<svg version="1.0" xmlns="http://www.w3.org/2000/svg"
 width="640.000000pt" height="154.000000pt" viewBox="0 0 640.000000 154.000000"
 preserveAspectRatio="xMidYMid meet">

<g transform="translate(0.000000,154.000000) scale(0.100000,-0.100000)"
fill="#000000" stroke="none">
<path d="M535 1533 c-230 -31 -432 -211 -490 -438 -77 -303 122 -628 431 -701
91 -21 235 -14 321 16 190 66 336 236 379 440 64 305 -144 610 -458 674 -74
15 -119 18 -183 9z m218 -204 c104 -41 193 -132 233 -239 12 -30 18 -76 18
-135 0 -81 -3 -97 -31 -157 -42 -90 -109 -160 -192 -201 -61 -30 -72 -32 -171
-32 -97 0 -110 2 -172 32 -85 40 -151 106 -191 191 -30 62 -32 75 -32 172 0
95 3 111 28 162 57 116 166 202 287 228 62 13 161 3 223 -21z"/>
<path d="M1560 785 l0 -595 85 0 85 0 0 265 0 265 153 0 c226 0 322 26 398
107 68 70 84 115 84 228 0 113 -16 158 -84 228 -79 84 -142 97 -478 97 l-243
0 0 -595z m550 433 c62 -32 85 -75 85 -158 -1 -86 -24 -132 -84 -168 -44 -26
-52 -27 -213 -30 l-168 -4 0 191 0 191 168 0 c154 0 171 -2 212 -22z"/>
<path d="M3180 785 l0 -595 75 0 75 0 0 595 0 595 -75 0 -75 0 0 -595z"/>
<path d="M5630 1295 l0 -85 90 0 90 0 0 85 0 85 -90 0 -90 0 0 -85z"/>
<path d="M5250 1216 l-65 -23 -3 -86 -3 -86 -72 -3 -72 -3 0 -55 0 -55 73 -3
72 -3 0 -294 c0 -334 4 -357 68 -397 38 -24 167 -37 236 -24 l36 7 0 59 0 60
-44 -6 c-25 -4 -60 -1 -81 6 -61 20 -65 41 -65 335 l0 255 95 0 95 0 0 60 0
60 -95 0 -95 0 0 110 c0 61 -3 110 -7 109 -5 0 -37 -11 -73 -23z"/>
<path d="M2589 1027 c-82 -23 -134 -61 -163 -119 -14 -28 -26 -65 -26 -80 l0
-28 75 0 c65 0 75 2 75 18 0 29 37 80 72 98 46 24 142 22 194 -4 49 -25 65
-57 72 -144 l5 -68 -119 0 c-225 0 -343 -52 -400 -175 -30 -64 -32 -161 -5
-221 38 -84 137 -136 259 -136 99 -1 148 18 208 77 l52 51 8 -50 9 -51 65 -3
66 -3 -1 343 c0 308 -2 346 -18 375 -46 85 -132 124 -282 129 -63 3 -117 -1
-146 -9z m280 -434 c23 -6 23 -8 16 -77 -15 -155 -82 -226 -212 -226 -105 0
-168 52 -168 140 0 106 100 165 285 169 30 0 66 -2 79 -6z"/>
<path d="M3686 1029 c-106 -26 -173 -90 -194 -186 l-10 -43 79 0 c69 0 79 2
79 18 0 29 37 80 72 98 43 23 136 23 186 0 51 -23 72 -61 79 -145 l6 -68 -149
-5 c-121 -4 -160 -9 -205 -27 -118 -45 -192 -147 -192 -261 1 -147 110 -241
281 -242 99 -1 148 18 208 77 l51 51 9 -51 9 -50 65 -3 65 -3 2 323 c1 193 -2
338 -8 361 -15 56 -71 112 -137 138 -65 25 -230 35 -296 18z m272 -435 c22 -6
23 -9 16 -78 -14 -156 -80 -226 -211 -226 -105 0 -168 52 -168 140 0 106 100
165 285 169 30 0 65 -2 78 -5z"/>
<path d="M4588 1020 c-52 -15 -110 -55 -139 -94 l-29 -40 0 67 0 67 -75 0 -75
0 0 -415 0 -415 74 0 75 0 3 278 c3 275 3 278 29 327 15 30 42 62 68 80 39 27
50 30 120 30 66 0 83 -4 113 -25 72 -49 73 -50 76 -387 l3 -303 80 0 80 0 -3
318 -3 317 -27 57 c-31 66 -85 110 -161 133 -54 16 -164 19 -209 5z"/>
<path d="M5647 1013 c-4 -3 -7 -190 -7 -415 l0 -408 80 0 80 0 0 415 0 415
-73 0 c-41 0 -77 -3 -80 -7z"/>
<path d="M5938 1013 c-2 -5 -2 -191 0 -415 l3 -408 79 0 80 0 0 258 c0 157 4
273 11 297 15 53 73 110 128 125 24 6 70 10 103 8 l58 -3 0 73 0 72 -67 0
c-105 0 -183 -43 -226 -125 -16 -30 -16 -29 -17 48 l0 77 -74 0 c-41 0 -76 -3
-78 -7z"/>
<path d="M46 346 c-24 -44 -43 -82 -42 -82 5 -6 598 -254 605 -254 9 0 592
248 599 255 2 1 -16 39 -40 83 l-44 80 -254 -109 c-161 -70 -261 -108 -274
-105 -12 3 -130 52 -263 110 l-242 104 -45 -82z"/>
</g>
</svg>
