<?xml version="1.0" standalone="no"?>
<!DOCTYPE svg PUBLIC "-//W3C//DTD SVG 20010904//EN"
 "http://www.w3.org/TR/2001/REC-SVG-20010904/DTD/svg10.dtd">
<svg version="1.0" xmlns="http://www.w3.org/2000/svg"
 width="10733.000000pt" height="2098.000000pt" viewBox="0 0 10733.000000 2098.000000"
 preserveAspectRatio="xMidYMid meet">

<g transform="translate(0.000000,2098.000000) scale(0.100000,-0.100000)"
fill="#000000" stroke="none">
<path d="M4510 20959 c-619 -49 -1222 -219 -1802 -510 -486 -242 -900 -541
-1283 -924 -842 -841 -1339 -1951 -1415 -3155 -16 -258 -8 -11816 8 -11955 31
-261 46 -362 73 -508 79 -422 213 -832 394 -1202 728 -1488 2247 -2453 4073
-2586 208 -15 736 -7 925 15 790 89 1472 312 2090 684 1170 702 1921 1837
2167 3275 16 93 31 171 33 174 9 8 648 -636 1078 -1087 872 -915 1359 -1388
1854 -1800 1014 -844 1900 -1274 2800 -1360 133 -13 769 -6 1010 11 1095 77
2096 540 2895 1339 993 992 1563 2413 1527 3805 -29 1073 -383 2021 -1054
2820 -60 71 -725 744 -1642 1660 -847 846 -1541 1542 -1541 1545 0 3 39 12 88
18 145 21 468 89 627 133 1027 281 1869 840 2477 1646 485 641 811 1449 927
2293 38 283 46 400 46 745 0 345 -8 461 -46 745 -156 1140 -660 2169 -1426
2911 -789 763 -1784 1188 -2971 1269 -187 12 -11752 12 -11912 -1z m639 -2964
c235 -33 501 -128 713 -254 488 -291 816 -736 940 -1276 l23 -100 2 -5825 c4
-6403 8 -5923 -56 -6172 -177 -687 -720 -1159 -1491 -1299 -147 -27 -460 -37
-610 -20 -609 69 -1114 352 -1405 786 -143 213 -231 440 -282 725 -16 89 -17
486 -21 5825 -2 4133 0 5765 8 5855 55 617 418 1189 955 1505 200 118 468 213
704 250 120 18 386 18 520 0z m11271 -8 c253 -47 420 -106 603 -209 483 -274
810 -790 893 -1408 18 -135 20 -426 4 -555 -60 -501 -282 -952 -609 -1239
-275 -242 -603 -383 -993 -425 -66 -8 -1118 -11 -3307 -11 l-3209 0 -5 1008
c-4 992 -7 1085 -42 1442 -54 541 -167 1032 -311 1347 l-33 73 3457 -3 c3264
-2 3462 -3 3552 -20z m-1374 -9319 c1605 -1606 2535 -2544 2576 -2598 439
-572 504 -1243 185 -1895 -278 -565 -807 -1003 -1392 -1150 -181 -46 -312 -59
-502 -52 -363 14 -664 124 -983 360 -74 54 -657 632 -2612 2586 l-2518 2516 0
1372 0 1373 1368 0 1367 0 2511 -2512z"/>
<path d="M35245 16595 c-848 -88 -1570 -405 -2107 -923 -232 -225 -402 -449
-566 -747 -41 -73 -73 -122 -76 -114 -3 8 -64 345 -136 749 -72 404 -134 745
-137 758 l-5 22 -1482 -2 -1481 -3 -3 -5792 -2 -5793 1760 0 1760 0 0 2863 c0
2742 4 3175 30 3399 124 1057 624 1756 1445 2021 238 77 420 102 735 101 566
-1 1033 -110 1518 -355 120 -60 195 -93 197 -86 3 7 158 804 345 1772 188 968
344 1769 346 1781 5 18 -6 25 -93 59 -331 127 -725 224 -1113 276 -211 28
-730 36 -935 14z"/>
<path d="M58370 16604 c-19 -2 -87 -9 -150 -15 -891 -82 -1776 -437 -2440
-977 -134 -110 -404 -379 -502 -502 -69 -87 -169 -228 -196 -275 -6 -11 -13
-18 -15 -15 -3 3 -87 322 -187 710 -100 388 -188 729 -197 758 l-14 52 -1472
-2 -1472 -3 -3 -5792 -2 -5793 1765 0 1765 0 3 3123 c3 3408 -1 3173 58 3537
86 540 266 989 538 1345 62 82 231 255 316 325 214 175 490 307 769 366 149
32 457 44 638 25 418 -44 753 -192 1020 -449 309 -298 478 -678 555 -1242 16
-115 17 -395 20 -3577 l3 -3453 1760 0 1760 0 0 3818 c0 2450 -4 3876 -10
3982 -79 1297 -473 2295 -1184 3005 -585 584 -1308 916 -2246 1031 -97 12
-235 17 -490 19 -195 2 -371 1 -390 -1z"/>
<path d="M86635 16603 c-498 -40 -901 -121 -1340 -268 -1658 -555 -2925 -1844
-3489 -3547 -169 -509 -271 -1025 -322 -1628 -22 -251 -25 -930 -6 -1170 76
-943 281 -1737 642 -2476 124 -254 232 -448 367 -654 604 -922 1434 -1615
2413 -2016 441 -180 897 -294 1410 -351 197 -22 811 -25 1030 -5 1049 96 1854
394 2529 936 121 98 334 300 423 403 l45 52 241 -562 241 -562 1555 -3 1556
-2 0 5795 0 5795 -1634 0 -1635 0 -25 -82 c-88 -288 -295 -951 -299 -954 -2
-3 -35 28 -72 68 -398 425 -976 776 -1628 989 -374 122 -820 208 -1242 239
-126 9 -661 11 -760 3z m1271 -3033 c706 -43 1295 -308 1761 -794 333 -346
564 -774 696 -1291 135 -528 150 -1145 41 -1706 -64 -329 -186 -669 -336 -933
-458 -807 -1236 -1285 -2170 -1335 -926 -49 -1750 321 -2279 1025 -307 409
-501 907 -580 1489 -26 195 -36 621 -20 830 55 695 278 1292 658 1765 88 110
275 298 383 384 197 157 492 323 735 412 215 78 504 137 758 153 175 11 186
11 353 1z"/>
<path d="M38743 12428 c3 -4279 -1 -3978 58 -4393 197 -1392 817 -2421 1815
-3015 1132 -674 2749 -733 4099 -148 706 305 1316 789 1664 1318 31 48 57 78
59 70 2 -8 90 -350 196 -760 l193 -745 1471 -3 1472 -2 0 5795 0 5795 -1760 0
-1759 0 -4 -3122 c-3 -2869 -4 -3136 -20 -3278 -56 -508 -156 -878 -329 -1224
-110 -219 -225 -383 -387 -550 -408 -419 -962 -613 -1586 -556 -982 90 -1575
747 -1655 1830 -6 85 -10 1380 -10 3518 l0 3382 -1760 0 -1760 0 3 -3912z"/>
<path d="M63300 16328 c0 -7 831 -2546 1846 -5643 1016 -3096 1869 -5699 1896
-5783 l49 -152 1822 0 1822 0 584 1663 c943 2682 1034 2938 1038 2933 3 -3
357 -1037 788 -2298 l783 -2293 1833 0 1833 0 1898 5784 c1044 3182 1898 5789
1898 5793 0 4 -806 8 -1790 8 l-1790 0 -10 -22 c-7 -17 -1955 -7516 -2021
-7783 -10 -40 -14 -45 -21 -30 -5 15 -2152 7357 -2273 7778 l-16 57 -1770 0
c-1412 0 -1769 -3 -1769 -13 0 -6 207 -612 459 -1346 l460 -1334 -936 -2578
c-515 -1418 -939 -2577 -941 -2574 -2 2 -478 1767 -1056 3922 l-1052 3918
-1782 3 c-1392 2 -1782 -1 -1782 -10z"/>
<path d="M94982 16318 c3 -13 1039 -2479 2302 -5482 1264 -3002 2296 -5465
2293 -5475 -2 -9 -439 -1190 -971 -2625 -531 -1434 -966 -2610 -966 -2612 0
-2 809 -3 1797 -2 l1797 3 1858 4945 c3688 9815 4221 11233 4225 11251 5 18
-47 19 -1836 19 l-1840 0 -74 -227 c-41 -126 -561 -1734 -1157 -3576 -596
-1841 -1087 -3344 -1091 -3340 -5 6 -2397 6652 -2561 7116 l-10 27 -1885 0
-1885 0 4 -22z"/>
</g>
</svg>
