<?xml version="1.0" standalone="no"?>
<!DOCTYPE svg PUBLIC "-//W3C//DTD SVG 20010904//EN"
 "http://www.w3.org/TR/2001/REC-SVG-20010904/DTD/svg10.dtd">
<svg version="1.0" xmlns="http://www.w3.org/2000/svg"
 width="1280.000000pt" height="525.000000pt" viewBox="0 0 1280.000000 525.000000"
 preserveAspectRatio="xMidYMid meet">

<g transform="translate(0.000000,525.000000) scale(0.100000,-0.100000)"
fill="#000000" stroke="none">
<path d="M7414 3860 c-270 -29 -431 -209 -494 -552 l-12 -68 -97 0 c-53 0
-106 -3 -118 -6 -26 -7 -37 -38 -54 -152 -11 -71 -11 -85 2 -93 8 -5 60 -9
117 -9 95 0 102 -1 102 -20 0 -11 -16 -104 -35 -207 -47 -256 -72 -388 -94
-518 -97 -548 -117 -635 -167 -741 -56 -119 -154 -152 -345 -118 -36 6 -36 6
-57 -47 -40 -105 -55 -157 -49 -171 9 -24 126 -48 234 -48 175 0 287 41 383
139 112 114 173 277 235 626 111 622 158 890 171 970 24 153 1 135 177 135
114 0 158 4 172 14 14 10 23 41 36 117 17 96 17 105 2 117 -12 8 -62 12 -166
12 l-148 0 7 48 c20 139 82 260 153 296 52 27 125 36 192 24 106 -18 96 -24
140 91 21 57 39 110 39 117 0 7 -17 18 -37 24 -33 9 -199 32 -213 28 -3 0 -37
-4 -76 -8z"/>
<path d="M3225 3793 c-10 -54 -3 -1974 7 -1996 8 -16 23 -17 146 -15 l137 3 3
1023 2 1022 -144 0 -144 0 -7 -37z"/>
<path d="M830 3253 c-241 -47 -395 -237 -377 -468 7 -89 34 -152 94 -216 68
-72 148 -112 371 -186 108 -35 208 -71 222 -80 79 -49 108 -105 90 -172 -26
-98 -110 -144 -257 -142 -139 1 -279 44 -415 127 -38 24 -63 33 -69 27 -13
-13 -79 -191 -79 -213 0 -10 27 -32 72 -58 158 -89 293 -124 488 -125 152 -1
210 9 315 58 166 75 255 234 243 432 -6 95 -42 167 -113 231 -71 63 -168 110
-365 177 -235 80 -287 112 -304 192 -10 42 21 113 61 141 94 67 304 51 521
-40 62 -26 76 -28 87 -17 20 21 78 186 72 203 -3 8 -30 27 -59 42 -176 89
-412 124 -598 87z"/>
<path d="M2168 3256 c-121 -16 -287 -64 -339 -99 -19 -12 -35 -32 -37 -43 -3
-19 47 -161 67 -193 8 -12 19 -10 71 12 103 45 215 70 341 75 238 9 335 -59
347 -245 l5 -75 -79 9 c-142 15 -351 10 -434 -11 -167 -41 -302 -142 -367
-273 -27 -55 -28 -64 -28 -198 0 -138 1 -142 32 -206 59 -119 170 -198 328
-235 62 -15 117 -19 250 -18 173 1 269 13 498 66 l87 20 0 498 c0 323 -4 518
-11 552 -18 87 -73 191 -126 237 -128 113 -348 159 -605 127z m343 -790 c119
-8 109 13 109 -226 0 -119 -4 -211 -9 -215 -25 -15 -243 -37 -326 -32 -112 6
-173 27 -224 77 -86 84 -75 259 21 332 68 51 190 79 308 72 25 -2 79 -6 121
-8z"/>
<path d="M5695 3255 c-181 -38 -315 -153 -360 -310 -26 -88 -17 -222 19 -294
60 -118 156 -178 424 -265 275 -90 322 -122 322 -220 0 -70 -28 -113 -99 -148
-48 -25 -66 -28 -151 -28 -149 0 -290 43 -434 131 -61 38 -65 35 -111 -94 -34
-96 -35 -97 -15 -117 34 -34 204 -110 306 -136 84 -21 121 -25 244 -25 161 0
224 12 326 61 74 36 156 119 189 192 56 126 54 281 -6 387 -57 99 -162 163
-412 247 -260 88 -315 124 -324 207 -9 75 45 145 130 168 96 26 293 -5 455
-73 43 -18 77 -27 82 -22 16 16 79 195 74 209 -5 13 -112 68 -179 92 -129 46
-356 64 -480 38z"/>
<path d="M10665 3256 c-154 -27 -259 -80 -365 -186 -158 -158 -228 -389 -201
-669 19 -203 78 -339 201 -462 84 -85 156 -125 287 -161 105 -28 352 -31 458
-5 156 39 175 47 175 71 0 28 -57 187 -73 203 -9 9 -26 7 -72 -9 -86 -29 -277
-37 -365 -14 -207 53 -303 205 -303 481 0 193 46 320 149 414 81 74 159 96
317 88 67 -3 147 -13 177 -21 87 -25 84 -27 125 84 20 55 35 108 33 117 -10
52 -372 98 -543 69z"/>
<path d="M4301 3245 c-230 -50 -404 -224 -472 -471 -39 -143 -41 -390 -5 -536
57 -226 227 -395 465 -461 65 -18 104 -21 266 -21 165 0 202 3 280 22 105 26
195 65 195 84 0 29 -65 201 -78 206 -8 3 -44 -5 -81 -16 -110 -36 -160 -43
-296 -44 -146 -1 -206 12 -293 62 -91 53 -157 175 -164 305 l-3 50 480 5 479
5 7 25 c23 82 0 324 -40 431 -69 183 -234 325 -415 358 -80 15 -247 13 -325
-4z m257 -238 c126 -33 202 -135 227 -301 l7 -46 -337 0 -337 0 7 43 c20 115
96 237 176 278 77 39 169 48 257 26z"/>
<path d="M8083 3249 c-73 -12 -147 -44 -225 -95 -159 -106 -248 -262 -282
-495 -20 -132 -20 -183 -1 -307 27 -182 78 -301 173 -404 119 -128 257 -187
457 -195 215 -9 376 48 505 176 222 222 272 686 108 1004 -80 157 -237 275
-413 312 -76 16 -239 18 -322 4z m291 -259 c66 -25 137 -97 172 -176 76 -172
70 -482 -13 -643 -63 -124 -153 -176 -303 -175 -172 1 -274 93 -327 294 -23
91 -23 339 0 430 37 140 107 233 202 270 70 27 196 27 269 0z"/>
<path d="M11820 3244 c-167 -36 -337 -169 -412 -324 -70 -145 -83 -211 -83
-420 0 -163 3 -194 23 -265 55 -188 166 -327 322 -402 136 -65 206 -78 415
-78 195 0 280 13 403 62 78 32 77 28 30 166 -22 61 -35 87 -47 87 -9 0 -52
-12 -95 -26 -133 -42 -368 -49 -484 -15 -139 41 -236 171 -249 333 l-6 68 481
0 482 0 7 28 c13 48 7 244 -11 327 -52 241 -214 414 -434 460 -84 18 -257 18
-342 -1z m316 -259 c94 -46 155 -143 170 -270 l7 -55 -337 0 -336 0 6 28 c17
76 28 110 46 147 68 133 167 189 316 181 53 -3 89 -12 128 -31z"/>
<path d="M9681 3234 c-65 -17 -137 -55 -181 -95 -18 -17 -34 -28 -37 -26 -2 3
-5 28 -7 57 -1 32 -8 55 -17 61 -24 15 -255 11 -268 -5 -8 -9 -10 -207 -9
-722 l3 -709 147 -3 146 -3 5 443 c4 469 6 489 55 584 32 62 65 97 124 129 49
28 62 30 180 33 l127 4 15 41 c9 23 27 73 41 112 31 83 28 87 -69 104 -85 15
-189 13 -255 -5z"/>
</g>
</svg>
