<?xml version="1.0" encoding="UTF-8"?>
<svg version="1.1" xmlns="http://www.w3.org/2000/svg" width="1280" height="307">
<path d="M0 0 C5.33687518 4.66534784 7.75690233 9.60383148 8.26742554 16.73603821 C8.2852284 18.14855993 8.29230145 19.56124416 8.29052734 20.97387695 C8.29724457 21.75033569 8.30396179 22.52679443 8.31088257 23.32678223 C8.32980069 25.88068126 8.3337837 28.4343166 8.3359375 30.98828125 C8.34237003 32.77418625 8.34909873 34.56009021 8.35610962 36.34599304 C8.36806714 40.08574871 8.37179205 43.82541212 8.37060547 47.56518555 C8.37040244 52.33984445 8.39769484 57.1139071 8.43214989 61.88842487 C8.45446945 65.57664162 8.45844145 69.26471605 8.45738602 72.95299339 C8.45973474 74.71233358 8.46851689 76.47167813 8.48405075 78.23095131 C8.6401697 97.73918999 8.6401697 97.73918999 2.62338257 104.56074524 C-2.28990766 109.07521027 -7.3620486 110.29091012 -13.89892578 110.21264648 C-17.28761694 109.86968227 -20.05553309 108.47368295 -23 106.875 C-23.67240723 106.52445557 -24.34481445 106.17391113 -25.03759766 105.81274414 C-33.34520848 101.40876531 -41.43028929 96.59102414 -49.5234375 91.80859375 C-54.00854436 89.16005489 -58.51356438 86.55118835 -63.0390625 83.97265625 C-64.21306337 83.3021822 -65.38705434 82.63169081 -66.56103516 81.96118164 C-68.79546333 80.68692624 -71.03200532 79.41636779 -73.27099609 78.15014648 C-91.81910612 67.54268164 -91.81910612 67.54268164 -95 58 C-95.78252755 51.49604148 -94.82658965 46.37126805 -91 41 C-86.58068581 36.34991222 -82.50643917 34.81079173 -76.16796875 34.4921875 C-67.94469451 34.5628714 -62.17754295 37.95161502 -55.3125 42.125 C-54.15708999 42.79943587 -53.00018919 43.47132441 -51.84179688 44.140625 C-48.54275534 46.06459433 -45.26873072 48.02506789 -42 50 C-40.05611938 51.16427924 -38.11212216 52.32836383 -36.16796875 53.4921875 C-34.77838156 54.32768563 -33.38894654 55.16343728 -32 56 C-31.98541748 54.80511963 -31.97083496 53.61023926 -31.95581055 52.37915039 C-31.89748234 47.91157315 -31.82025353 43.44448186 -31.73754883 38.97729492 C-31.704461 37.05029231 -31.67637972 35.12319654 -31.65356445 33.19604492 C-31.61971963 30.41284791 -31.5673914 27.63049229 -31.51171875 24.84765625 C-31.50532883 23.99728287 -31.4989389 23.14690948 -31.49235535 22.27076721 C-31.30117095 14.34904097 -29.77616814 6.77616814 -24 1 C-16.58266497 -4.19213452 -7.90364247 -4.55301108 0 0 Z " fill="#28B5E8" transform="translate(127,6)"/>
<path d="M0 0 C4.74933498 3.53872018 8.0669827 7.47454154 9.1875 13.375 C9.29162517 15.97660201 9.34465976 18.55180636 9.34863281 21.15356445 C9.35608017 22.32263336 9.35608017 22.32263336 9.36367798 23.51531982 C9.37826377 26.08964934 9.3850957 28.66391723 9.390625 31.23828125 C9.3963795 33.03183493 9.4021372 34.8253886 9.40789795 36.61894226 C9.41839781 40.37902106 9.42424708 44.13907853 9.42773438 47.89916992 C9.43321626 52.70759186 9.45724201 57.51573023 9.48570633 62.3240633 C9.50436777 66.02934075 9.50954018 69.73455037 9.51107025 73.43987083 C9.51408951 75.21202329 9.52209341 76.98417475 9.53525543 78.7562809 C9.55238913 81.24048819 9.55041802 83.72400888 9.54394531 86.20825195 C9.5531601 86.93421066 9.56237488 87.66016937 9.5718689 88.40812683 C9.5139021 95.5420265 7.19857206 101.22075446 2.1875 106.375 C-2.90650914 109.61664218 -8.19482202 111.05255842 -14.1484375 109.9375 C-20.38078431 108.11541854 -23.82469243 105.2147251 -27.5625 99.875 C-30.25138242 94.49723516 -30.01593231 88.80592284 -30.12890625 82.91796875 C-30.14968735 82.01500565 -30.17046844 81.11204254 -30.19187927 80.18171692 C-30.2570528 77.30871903 -30.31610955 74.43563286 -30.375 71.5625 C-30.41821586 69.61001706 -30.46183112 67.65754292 -30.50585938 65.70507812 C-30.61270107 60.92847497 -30.71405857 56.15178336 -30.8125 51.375 C-31.90751831 52.00946045 -31.90751831 52.00946045 -33.0246582 52.65673828 C-35.78802082 54.25695918 -38.55210503 55.85592498 -41.31665039 57.45410156 C-42.50280384 58.14013928 -43.6886858 58.82664668 -44.87426758 59.51367188 C-48.84574449 61.81480716 -52.82529164 64.10123496 -56.8125 66.375 C-58.36940552 67.26288208 -58.36940552 67.26288208 -59.95776367 68.16870117 C-60.92045166 68.7072876 -61.88313965 69.24587402 -62.875 69.80078125 C-63.71804687 70.27427002 -64.56109375 70.74775879 -65.4296875 71.2355957 C-70.66670086 73.73981101 -75.50400123 74.05077232 -81 72.25 C-86.23129124 69.93656045 -89.77362631 67.17571439 -92.6875 62.125 C-94.77598901 55.16336998 -94.53047307 49.81094614 -91.2734375 43.296875 C-86.39879619 36.88424525 -78.92986687 33.38056051 -72.0625 29.5 C-70.32506177 28.50832107 -68.58762897 27.51663246 -66.8505249 26.52436829 C-65.04716053 25.4951517 -63.24240269 24.46841058 -61.4375 23.44189453 C-56.74767092 20.77159476 -52.07592239 18.07027962 -47.40380859 15.36914062 C-44.13818316 13.48125312 -40.87016337 11.59757396 -37.6015625 9.71484375 C-34.13269972 7.71600018 -30.66815615 5.71031638 -27.2109375 3.69140625 C-26.55706055 3.31169678 -25.90318359 2.9319873 -25.22949219 2.54077148 C-23.60171684 1.59537553 -21.97649365 0.64558869 -20.3515625 -0.3046875 C-13.96118856 -3.62768195 -6.43178942 -3.28641872 0 0 Z " fill="#28B5E8" transform="translate(125.8125,196.625)"/>
<path d="M0 0 C5.35224142 3.14481982 8.59463027 7.15498457 10.57421875 13.09375 C11.31258399 19.908498 10.83914554 25.5763058 6.57421875 31.09375 C-0.07953617 36.5591342 -7.72952328 40.69121632 -15.23828125 44.84375 C-17.24506957 45.96304355 -19.25158958 47.08281834 -21.2578125 48.203125 C-22.13155518 48.68749023 -23.00529785 49.17185547 -23.90551758 49.67089844 C-25.66785926 50.6658541 -27.40600028 51.70435789 -29.1237793 52.77441406 C-31.42578125 54.09375 -31.42578125 54.09375 -33.42578125 54.09375 C-33.42578125 54.75375 -33.42578125 55.41375 -33.42578125 56.09375 C-32.36170044 56.49557495 -32.36170044 56.49557495 -31.27612305 56.90551758 C-26.0403473 59.08817458 -21.18129762 62.0114315 -16.23828125 64.78125 C-15.15224609 65.38130859 -14.06621094 65.98136719 -12.94726562 66.59960938 C7.13733983 77.83010047 7.13733983 77.83010047 10.01953125 84.92578125 C11.7066493 91.51979897 11.22889037 97.39857106 7.8515625 103.3359375 C5.12668793 107.08576489 2.0159327 109.61317868 -2.42578125 111.09375 C-12.02438775 112.28043218 -18.25702272 109.93269278 -26.42578125 105.09375 C-27.63239624 104.39381317 -28.83944799 103.69462887 -30.046875 102.99609375 C-32.83916405 101.3701907 -35.61898263 99.72461099 -38.39453125 98.0703125 C-43.28239437 95.16514876 -48.20790933 92.32737955 -53.13745117 89.49365234 C-57.58244443 86.938123 -62.02099768 84.3715164 -66.45947266 81.8046875 C-69.05174363 80.3094912 -71.6499494 78.82534931 -74.25 77.34375 C-75.57986509 76.57367257 -76.90933531 75.80291255 -78.23828125 75.03125 C-79.33785156 74.40089844 -80.43742188 73.77054687 -81.5703125 73.12109375 C-85.87203824 70.06692732 -89.60499037 66.1481859 -91.42578125 61.09375 C-92.32809493 54.44512285 -92.23670087 48.38467384 -88.1328125 42.87890625 C-81.97780884 36.44220906 -73.7409986 32.50696659 -66.00927734 28.27783203 C-59.39528547 24.65931237 -52.87041811 20.90075122 -46.36328125 17.09375 C-45.34838623 16.50045898 -44.33349121 15.90716797 -43.2878418 15.29589844 C-38.59222324 12.54661698 -33.90289387 9.78710328 -29.22265625 7.01171875 C-28.43769775 6.54701172 -27.65273926 6.08230469 -26.84399414 5.60351562 C-25.39883747 4.74689217 -23.95521181 3.88767841 -22.51342773 3.02539062 C-15.54921712 -1.10548542 -7.89327719 -2.94885718 0 0 Z " fill="#28B5E8" transform="translate(291.42578125,99.90625)"/>
<path d="M0 0 C4.14209674 2.93789955 7.28721191 6.52179198 8.89453125 11.34375 C9.00828997 12.83145605 9.07060327 14.32342324 9.09985352 15.81518555 C9.12977135 17.16624641 9.12977135 17.16624641 9.16029358 18.54460144 C9.17700607 19.51343765 9.19371857 20.48227386 9.2109375 21.48046875 C9.2317186 22.47504593 9.25249969 23.46962311 9.27391052 24.49433899 C9.33932537 27.67323867 9.39825365 30.85222134 9.45703125 34.03125 C9.50022413 36.18555548 9.54383867 38.33985254 9.58789062 40.49414062 C9.69499851 45.77725588 9.79677998 51.06045379 9.89453125 56.34375 C13.81223668 54.15810668 17.72849572 51.96988367 21.64453125 49.78125 C22.73636719 49.17216797 23.82820313 48.56308594 24.953125 47.93554688 C26.04238281 47.32646484 27.13164062 46.71738281 28.25390625 46.08984375 C29.35387939 45.4764917 30.45385254 44.86313965 31.5871582 44.23120117 C33.79857067 42.96919263 35.99023064 41.67194926 38.16088867 40.34106445 C39.19576416 39.70773193 40.23063965 39.07439941 41.296875 38.421875 C42.21202881 37.84727539 43.12718262 37.27267578 44.07006836 36.68066406 C49.75480493 33.98988547 56.20137684 34.1170029 62.12890625 36.0859375 C66.79706636 38.49981516 69.5918183 42.06400233 72.14453125 46.53125 C73.58393695 51.92902138 73.56699631 57.20026761 71.89453125 62.53125 C66.13700147 70.62777626 57.54051354 75.12915898 49.01953125 79.84375 C47.78442297 80.53601108 46.54989487 81.22930819 45.31591797 81.92358398 C43.41185798 82.99478491 41.50747339 84.06534312 39.60110474 85.13243103 C34.14992774 88.18595945 28.74783716 91.318927 23.35058594 94.46655273 C-6.52055288 111.86073317 -6.52055288 111.86073317 -14.10546875 110.34375 C-20.56067983 108.00176793 -24.99666333 105.56136084 -28.10546875 99.34375 C-29.34493767 95.62534324 -29.26101182 92.16896602 -29.26660156 88.2956543 C-29.27156647 87.47580048 -29.27653137 86.65594666 -29.28164673 85.81124878 C-29.296261 83.09681358 -29.30306933 80.38243684 -29.30859375 77.66796875 C-29.31434606 75.7809092 -29.32010379 73.89384967 -29.3258667 72.00679016 C-29.33637477 68.04822518 -29.34221862 64.08968049 -29.34570312 60.13110352 C-29.35118567 55.06360898 -29.37520941 49.99638342 -29.40367508 44.9289732 C-29.42231773 41.0298637 -29.42750794 37.13081877 -29.429039 33.23166847 C-29.43206267 31.36379336 -29.44008156 29.49591932 -29.45322418 27.628088 C-29.47031777 25.01186155 -29.46839636 22.39628924 -29.46191406 19.7800293 C-29.47112885 19.01150131 -29.48034363 18.24297333 -29.48983765 17.45115662 C-29.44628871 11.82790992 -28.25122974 7.72340911 -24.45703125 3.515625 C-16.72296665 -2.85360467 -9.16417674 -5.0610838 0 0 Z " fill="#28B5E8" transform="translate(196.10546875,5.65625)"/>
<path d="M0 0 C1.20790059 0.69279087 2.41665107 1.38410192 3.6262207 2.07397461 C7.07623759 4.0484327 10.50778391 6.052991 13.9375 8.0625 C15.50246198 8.97159898 17.06754411 9.8804912 18.6328125 10.7890625 C21.27743232 12.33062614 23.90903227 13.89201786 26.53515625 15.46484375 C30.01082715 17.53708398 33.52852485 19.52583644 37.05859375 21.50390625 C38.13343018 22.11290771 39.2082666 22.72190918 40.31567383 23.34936523 C42.42205061 24.5418542 44.53486053 25.72307744 46.6550293 26.89086914 C53.53651024 30.81312512 60.32629125 35.22887375 62.9375 43.0625 C63.68034305 49.918576 63.01527205 55.39401811 58.9375 61.0625 C55.30542416 65.17606139 51.33800165 67.14716074 45.9375 68.0625 C38.72923293 68.1198415 33.55224692 65.71815112 27.4375 62.125 C26.66664063 61.68865234 25.89578125 61.25230469 25.1015625 60.80273438 C22.36654229 59.24517095 19.65134443 57.65671441 16.9375 56.0625 C16.23657227 55.65102722 15.53564453 55.23955444 14.81347656 54.81561279 C9.85211701 51.90248384 4.89394373 48.983984 -0.0625 46.0625 C-0.06614563 46.61071915 -0.06979126 47.15893829 -0.07354736 47.72377014 C-0.11549147 53.4509559 -0.18491953 59.17734912 -0.27001953 64.90405273 C-0.29817349 67.03873756 -0.31941565 69.17352556 -0.33349609 71.30834961 C-0.35500253 74.38448694 -0.40169337 77.45939114 -0.453125 80.53515625 C-0.45496796 81.95744286 -0.45496796 81.95744286 -0.45684814 83.40846252 C-0.62316871 91.00310278 -2.42546637 95.23710682 -7.6875 100.875 C-12.17710841 104.29889328 -17.68199467 105.25064303 -23.23828125 104.94140625 C-28.54420112 103.94203882 -32.59908409 101.16599024 -36.0625 97.0625 C-38.98241874 92.25228854 -39.49446352 88.18040689 -39.45068359 82.67382812 C-39.45594055 81.85353622 -39.46119751 81.03324432 -39.46661377 80.18809509 C-39.4797648 77.48978356 -39.47109317 74.79206703 -39.4609375 72.09375 C-39.46295964 70.21097704 -39.46587226 68.32820485 -39.46963501 66.44543457 C-39.47405173 62.50472537 -39.4676483 58.56422055 -39.45361328 54.62353516 C-39.43652182 49.57962016 -39.44636649 44.53618412 -39.46433067 39.49228668 C-39.47518612 35.60602224 -39.47171408 31.7198708 -39.4639473 27.83360291 C-39.46195016 25.97411543 -39.46438744 24.11461759 -39.47138596 22.25514221 C-39.47902944 19.65354342 -39.46735595 17.05271359 -39.45068359 14.45117188 C-39.45675629 13.68735703 -39.46282898 12.92354218 -39.46908569 12.13658142 C-39.40283173 6.5384763 -38.17625269 2.45774518 -34.44921875 -1.765625 C-22.49152352 -11.77160446 -12.32970582 -7.24070158 0 0 Z " fill="#28B5E8" transform="translate(206.0625,201.9375)"/>
<path d="M0 0 C1.093125 0.61520508 2.18625 1.23041016 3.3125 1.86425781 C12.92562494 7.29164494 22.47643585 12.82302203 31.98828125 18.42578125 C35.52581176 20.50764808 39.08080285 22.54791099 42.66796875 24.54296875 C43.44785156 24.98286133 44.22773437 25.42275391 45.03125 25.87597656 C46.44736261 26.67316319 47.87001188 27.45892068 49.30078125 28.22949219 C54.42865406 31.14425528 58.46483957 34.9734447 60.17919922 40.77416992 C61.36482647 46.6924889 61.20257615 52.3848442 58.0949707 57.67089844 C52.38563087 65.18390577 41.61920103 69.66343936 33.5625 74.1875 C31.7149685 75.23189325 29.86842066 76.27801093 28.02194214 77.32426453 C26.76015766 78.03911538 25.4980509 78.75339767 24.23562622 79.46711731 C19.91022567 81.91464594 15.60223954 84.39064647 11.3046875 86.88671875 C10.72269592 87.22442291 10.14070435 87.56212708 9.54107666 87.9100647 C6.78070447 89.51234971 4.02205927 91.11751097 1.265625 92.7265625 C-18.53606506 104.21358942 -18.53606506 104.21358942 -26.4375 102.6875 C-32.37546496 100.76891565 -35.84190326 97.69954394 -39.4375 92.6875 C-41.83689842 87.88870315 -41.17270687 80.62303822 -39.89453125 75.51953125 C-35.38405966 66.26565292 -22.14206757 61.08086938 -13.625 56.375 C-12.51962891 55.75560547 -11.41425781 55.13621094 -10.27539062 54.49804688 C-5.7279176 51.96739875 -1.31394924 49.52897572 3.5625 47.6875 C3.5625 47.0275 3.5625 46.3675 3.5625 45.6875 C2.85383789 45.4203418 2.14517578 45.15318359 1.41503906 44.87792969 C-3.84606434 42.6823511 -8.72365481 39.72786129 -13.6875 36.9375 C-15.32912109 36.02484375 -15.32912109 36.02484375 -17.00390625 35.09375 C-37.86641661 23.40075018 -37.86641661 23.40075018 -40.4375 15.6875 C-41.10225679 8.23350582 -41.08183645 2.71258513 -36.4375 -3.3125 C-24.44458879 -14.98980828 -11.98508179 -6.77595237 0 0 Z " fill="#28B5E8" transform="translate(40.4375,108.3125)"/>
<path d="M0 0 C10.44133721 10.89683178 15.71899401 24.14528967 16.01171875 39.11328125 C15.515625 41.6796875 15.515625 41.6796875 14.03509521 43.31306458 C10.3619232 45.30548387 6.78520145 45.11905503 2.70800781 45.11206055 C1.81984879 45.1222522 0.93168976 45.13244385 0.01661682 45.14294434 C-2.91606929 45.17311395 -5.84842898 45.18234638 -8.78125 45.19140625 C-10.81578663 45.20824998 -12.85031284 45.22639981 -14.88482666 45.24580383 C-20.23757672 45.29334305 -25.59028452 45.32312712 -30.94317627 45.34924316 C-36.40621286 45.37902884 -41.86910375 45.42556602 -47.33203125 45.47070312 C-58.04940302 45.55678091 -68.76680473 45.62410636 -79.484375 45.6796875 C-79.05520141 47.56861972 -78.61401171 49.4548237 -78.16796875 51.33984375 C-77.92361084 52.39051025 -77.67925293 53.44117676 -77.42749023 54.52368164 C-74.82034134 63.24814806 -68.98353855 71.44644993 -61.296875 76.3046875 C-60.41644531 76.87445313 -59.53601562 77.44421875 -58.62890625 78.03125 C-51.61285408 81.70923014 -45.07414545 83.24387415 -37.171875 83.1796875 C-35.93074951 83.17110718 -35.93074951 83.17110718 -34.66455078 83.16235352 C-23.69030336 82.844616 -14.22604173 78.50833925 -6.484375 70.6796875 C-5.07414791 68.74656722 -3.69969246 66.78691946 -2.359375 64.8046875 C1.05922716 59.84703338 1.05922716 59.84703338 5.265625 58.3046875 C8.7900006 58.71134622 10.19851676 59.00610107 12.515625 61.6796875 C13.515625 63.8671875 13.515625 63.8671875 13.515625 66.6796875 C9.0467971 78.66427141 -1.28330457 87.77682951 -12.64453125 93.18359375 C-25.78253795 98.78680195 -42.28863011 100.47897127 -56.0546875 95.70703125 C-57.25738281 95.19849609 -57.25738281 95.19849609 -58.484375 94.6796875 C-59.45117188 94.28910156 -60.41796875 93.89851563 -61.4140625 93.49609375 C-75.40338407 87.21335773 -84.80933037 76.58084085 -90.796875 62.6171875 C-96.56326749 46.87716336 -95.55681408 30.95221488 -89.19921875 15.5703125 C-82.16622608 1.70023226 -70.10522738 -8.92213667 -55.421875 -14.0390625 C-53.44814103 -14.58024762 -51.50200243 -14.97886786 -49.484375 -15.3203125 C-48.7728125 -15.454375 -48.06125 -15.5884375 -47.328125 -15.7265625 C-29.22653516 -18.38146234 -13.15945423 -12.29043367 0 0 Z M-66.671875 8.6796875 C-72.09171433 13.77416523 -75.7036395 19.80151062 -78.484375 26.6796875 C-78.484375 27.9996875 -78.484375 29.3196875 -78.484375 30.6796875 C-52.414375 30.6796875 -26.344375 30.6796875 0.515625 30.6796875 C-3.06029606 18.75995062 -7.74357707 10.22585428 -18.484375 3.6796875 C-19.08636719 3.29167969 -19.68835937 2.90367188 -20.30859375 2.50390625 C-35.74997061 -6.39835504 -53.60576045 -2.06093456 -66.671875 8.6796875 Z " fill="#28B5E8" transform="translate(1264.484375,113.3203125)"/>
<path d="M0 0 C3.44147098 2.29431399 3.73879154 3.25281818 5.10961914 7.03100586 C5.49755142 8.08488998 5.8854837 9.13877411 6.28517151 10.22459412 C6.69766647 11.3763765 7.11016144 12.52815887 7.53515625 13.71484375 C8.1923893 15.51230797 8.1923893 15.51230797 8.86289978 17.34608459 C10.03670011 20.55643462 11.19858464 23.77097148 12.35791016 26.98657227 C13.49959129 30.14775519 14.65156302 33.30515076 15.80273438 36.46289062 C17.6239041 41.46065243 19.44040879 46.46007599 21.25439453 51.46044922 C25.44584297 62.99468809 29.72192648 74.49765154 34 86 C37.64687834 78.20900948 41.16197716 70.39174761 44.41796875 62.4296875 C45.20479624 60.52592514 45.99191356 58.62228254 46.77929688 56.71875 C47.99371245 53.77507194 49.20573981 50.83047437 50.4128418 47.88378906 C51.59542026 45.00046886 52.7872148 42.12110286 53.98046875 39.2421875 C54.33989059 38.35788055 54.69931244 37.47357361 55.06962585 36.56246948 C55.58079704 35.33441086 55.58079704 35.33441086 56.10229492 34.08154297 C56.39730392 33.36352509 56.69231293 32.6455072 56.9962616 31.9057312 C58.10479436 29.80103393 59.13968792 28.48272267 61 27 C64.4375 26.5625 64.4375 26.5625 68 27 C71.55744501 29.8660267 73.11541308 32.94809342 74.8828125 37.109375 C75.13894821 37.70533478 75.39508392 38.30129456 75.65898132 38.91531372 C76.49036039 40.85636376 77.30781728 42.80293603 78.125 44.75 C78.69675498 46.09293228 79.26927198 47.43554037 79.8425293 48.77783203 C81.57578812 52.84599935 83.28967801 56.92214721 85 61 C85.52650162 62.25294159 86.0530307 63.50587164 86.57958984 64.75878906 C89.40743245 71.49720265 92.21580628 78.24343519 95 85 C97.33798268 82.66201732 97.91323535 80.90250854 99.02783203 77.79785156 C99.42229523 76.70780823 99.81675842 75.61776489 100.22317505 74.49468994 C100.64710541 73.30534851 101.07103577 72.11600708 101.5078125 70.890625 C101.95212616 69.65826111 102.39643982 68.42589722 102.85421753 67.15618896 C104.04305657 63.85870375 105.22516246 60.55884382 106.40582275 57.25842285 C107.57667126 53.98863241 108.75333795 50.72093948 109.9296875 47.453125 C110.39241933 46.16687886 110.85512692 44.88062401 111.31781006 43.59436035 C112.0058864 41.68165805 112.69409584 39.76900413 113.38269806 37.85649109 C115.72667702 31.34634799 118.06213567 24.83378397 120.35839844 18.30664062 C120.72101776 17.28536072 121.08363708 16.26408081 121.45724487 15.21185303 C122.12686508 13.32582751 122.79000777 11.43748429 123.44534302 9.54644775 C123.74036713 8.71997742 124.03539124 7.89350708 124.33935547 7.04199219 C124.58958466 6.32855652 124.83981384 5.61512085 125.09762573 4.88006592 C126.13166466 2.72568119 127.11975761 1.47501621 129 0 C133.36706908 -0.38991688 135.30513897 -0.46324069 139 2 C141.42967383 9.0947951 138.14181794 15.22978404 135.55859375 21.91015625 C135.07787289 23.1873777 134.59860528 24.46514694 134.12069702 25.74342346 C132.8415741 29.15326963 131.54360386 32.55563835 130.24158096 35.95679474 C128.90067377 39.46832588 127.5761065 42.98600113 126.25073242 46.50341797 C124.6632608 50.71416468 123.074626 54.92444167 121.47828674 59.13183594 C118.41801246 67.20184102 115.4134142 75.28849632 112.4921875 83.41015625 C112.16761063 84.30926224 111.84303375 85.20836823 111.50862122 86.13471985 C110.32340433 89.41956273 109.13831124 92.70427546 107.97335815 95.99636841 C107.20682934 98.16008505 106.42717099 100.31863228 105.64453125 102.4765625 C105.01575073 104.2412085 105.01575073 104.2412085 104.37426758 106.04150391 C102.94046864 109.12815794 101.6584523 110.89308727 99 113 C95.5 113.5625 95.5 113.5625 92 113 C88.38455386 109.29922582 86.51273597 105.0372201 84.609375 100.3046875 C84.15024467 99.19219131 84.15024467 99.19219131 83.68183899 98.05722046 C82.69694336 95.66619398 81.7234469 93.27070728 80.75 90.875 C80.07824444 89.23890779 79.40563554 87.6031657 78.73217773 85.96777344 C77.41360946 82.76406974 76.09863336 79.55893288 74.78662109 76.35253906 C72.58120545 70.96982475 70.32989953 65.6068657 68.0625 60.25 C67.44921108 58.79687824 66.83592876 57.34375369 66.22265625 55.890625 C65.61744141 54.45976562 65.61744141 54.45976562 65 53 C61.36899264 60.58260438 58.02234276 68.24961246 54.8359375 76.02734375 C54.47340881 76.91144928 54.11088013 77.79555481 53.73736572 78.70645142 C52.23200603 82.38386548 50.73019287 86.06268157 49.23535156 89.74438477 C48.12883836 92.46611179 47.01419788 95.18439699 45.8984375 97.90234375 C45.56605072 98.72741928 45.23366394 99.55249481 44.89120483 100.40257263 C43.00595028 104.97888701 41.10285723 109.11893544 38 113 C34.5 113.625 34.5 113.625 31 113 C27.88458328 110.40291782 26.33889625 108.05623925 24.96386719 104.27124023 C24.61484848 103.32771194 24.26582977 102.38418365 23.90623474 101.4120636 C23.54014603 100.38791855 23.17405731 99.3637735 22.796875 98.30859375 C22.4015004 97.23115402 22.00612579 96.15371429 21.59877014 95.04362488 C20.30535374 91.51198215 19.02751629 87.97492203 17.75 84.4375 C16.86134203 81.99944629 15.97160332 79.56178624 15.08081055 77.12451172 C13.72116473 73.40393801 12.36237696 69.68307606 11.00785828 65.96063232 C8.10898928 57.99984164 5.15872805 50.06045831 2.16015625 42.13671875 C1.41632286 40.16545286 0.67250726 38.19418026 -0.07128906 36.22290039 C-1.11913203 33.44718099 -2.16935726 30.67250416 -3.22790527 27.90084839 C-4.19499449 25.36649339 -5.15128095 22.82829746 -6.10546875 20.2890625 C-6.52746803 19.19720894 -6.52746803 19.19720894 -6.95799255 18.08329773 C-11.14274859 6.85687147 -11.14274859 6.85687147 -9 1.5 C-5.98475965 -0.76143026 -3.66055355 -0.39220217 0 0 Z " fill="#28B5E8" transform="translate(680,98)"/>
<path d="M0 0 C1.36392025 1.30202807 2.70794579 2.6266277 4 4 C4.03738281 3.18015625 4.07476563 2.3603125 4.11328125 1.515625 C4.17902344 0.43796875 4.24476562 -0.6396875 4.3125 -1.75 C4.37050781 -2.81734375 4.42851563 -3.8846875 4.48828125 -4.984375 C5.03732043 -8.21993414 5.74553994 -9.65777508 8 -12 C10.375 -12.9375 10.375 -12.9375 13 -13 C15.2831838 -11.8584081 17.19012683 -10.80987317 19 -9 C19.10400353 -7.63056458 19.13960359 -6.2558503 19.14717102 -4.88249207 C19.15432632 -3.99499771 19.16148163 -3.10750336 19.16885376 -2.19311523 C19.17154266 -1.21181641 19.17423157 -0.23051758 19.17700195 0.78051758 C19.18357315 1.80811691 19.19014435 2.83571625 19.19691467 3.89445496 C19.21670204 7.31114769 19.22832211 10.72779639 19.23828125 14.14453125 C19.24235678 15.30807318 19.2464323 16.4716151 19.25063133 17.67041588 C19.27151491 23.82820841 19.28580693 29.9859785 19.29516602 36.14379883 C19.30623756 42.51643491 19.34063987 48.88872249 19.38033772 55.26123524 C19.40643708 60.15020921 19.4148519 65.03909931 19.41844749 69.92813683 C19.42333045 72.27774091 19.4349926 74.62734083 19.45348549 76.97687721 C19.4777353 80.26196813 19.47693759 83.54614652 19.4699707 86.83129883 C19.48278076 87.80652496 19.49559082 88.7817511 19.50878906 89.78652954 C19.45790107 96.35255643 19.45790107 96.35255643 17.15812683 99.60429382 C14.19359656 101.52151813 12.46360537 101.57726756 9 101 C5.98835217 98.73576842 5.09595354 97.50929185 4.390625 93.765625 C4.34421875 92.60546875 4.2978125 91.4453125 4.25 90.25 C4.19328125 89.07953125 4.1365625 87.9090625 4.078125 86.703125 C4.05234375 85.81109375 4.0265625 84.9190625 4 84 C3.61070313 84.43570313 3.22140625 84.87140625 2.8203125 85.3203125 C-6.70202714 95.45699664 -18.75411404 100.92697037 -32.67163086 101.47290039 C-48.84384467 101.66112685 -61.5159022 96.3423233 -73.3125 85.25 C-84.97029643 73.03795017 -89.37271622 57.47909781 -89.2109375 40.9453125 C-88.41781397 26.11096492 -82.37157247 12.64073092 -72 2 C-49.72577242 -17.26145211 -23.23464934 -16.68503952 0 0 Z M-60 11 C-60.90492188 11.75216797 -60.90492188 11.75216797 -61.828125 12.51953125 C-70.14276239 19.94847901 -74.31634241 30.6842377 -75.21484375 41.61328125 C-75.64986513 53.91568587 -71.77466062 64.7928305 -63.875 74.125 C-55.80091535 82.75683392 -47.05499691 86.96439141 -35.25 87.375 C-22.41286129 87.15695943 -13.55004881 81.88967256 -4.8125 72.875 C2.93118183 63.88135378 5.40426537 53.13041202 5.2734375 41.5390625 C4.4013612 30.25190353 -0.30174706 19.68867605 -8.32421875 11.6796875 C-16.34842255 4.852186 -25.87054971 0.5404071 -36.5625 0.72265625 C-45.57095476 1.74765671 -53.33290397 4.90816226 -60 11 Z " fill="#28B5E8" transform="translate(1034,110)"/>
<path d="M0 0 C3 0.5 3 0.5 5.15338135 1.90618896 C7.99801052 5.90183285 7.57106155 9.70834812 7.54589844 14.50097656 C7.55623611 15.51593201 7.56657379 16.53088745 7.57722473 17.57659912 C7.60672284 20.93143502 7.60815343 24.28566944 7.609375 27.640625 C7.62435186 29.96662553 7.64107795 32.2926154 7.65948486 34.61859131 C7.70322576 40.74076823 7.72317255 46.86280169 7.73822021 52.98510742 C7.75776689 59.23234565 7.79973967 65.47942839 7.83984375 71.7265625 C7.91521901 83.98432712 7.96546628 96.24205706 8 108.5 C8.44279297 108.05197021 8.88558594 107.60394043 9.34179688 107.14233398 C11.39176683 105.07129904 13.44585433 103.00439303 15.5 100.9375 C16.19609375 100.23302734 16.8921875 99.52855469 17.609375 98.80273438 C21.66790603 94.72541385 25.8107299 90.82319961 30.18721867 87.08824158 C33.43759407 84.2404732 36.43819886 81.1440447 39.46484375 78.0625 C40.85598255 76.65871815 42.24726292 75.25507658 43.63867188 73.8515625 C45.79065588 71.67480922 47.9409798 69.49646609 50.08862305 67.31542969 C70.51551923 46.59201781 70.51551923 46.59201781 76.375 46.375 C80.55033557 48.16442953 80.55033557 48.16442953 82 50.5 C82.625 53.1875 82.625 53.1875 82 56.5 C79.96109489 59.45911892 77.52632212 61.95386359 75 64.5 C74.42507813 65.10070312 73.85015625 65.70140625 73.2578125 66.3203125 C70.43615948 69.21998358 67.5154299 71.94209992 64.43359375 74.5625 C59.21222777 79.10959758 54.37058478 84.02089953 49.5 88.9375 C48.5821875 89.85982422 47.664375 90.78214844 46.71875 91.73242188 C44.47684945 93.98599899 42.237334 96.24189075 40 98.5 C41.83186094 102.3490826 44.23109782 105.55188369 46.875 108.875 C47.3582373 109.48641846 47.84147461 110.09783691 48.33935547 110.7277832 C52.80403456 116.33480631 57.46334684 121.76478598 62.1484375 127.1875 C66.19860462 131.87973374 70.1400254 136.65010571 74 141.5 C74.78117187 142.45003906 75.56234375 143.40007812 76.3671875 144.37890625 C82.61625912 152.32539006 82.61625912 152.32539006 82.125 156.5625 C81 159.5 81 159.5 79 161.5 C75.63565388 162.20828339 74.19459037 162.47155068 71 161.5 C67.50021678 158.5752695 64.80567474 155.07965398 62 151.5 C60.60524316 149.81161014 59.20939495 148.12412131 57.8125 146.4375 C56.66046209 145.01557909 55.50848309 143.5936101 54.35742188 142.17089844 C51.60905049 138.78783121 48.83406642 135.42656722 46.0625 132.0625 C45.46590576 131.33804688 44.86931152 130.61359375 44.25463867 129.8671875 C39.19315071 123.7251882 34.10551584 117.60544406 29 111.5 C25.17165532 113.24937605 22.40676212 115.54928433 19.3347168 118.39379883 C17.81493491 119.76482867 16.24985424 121.08773827 14.63867188 122.35009766 C10.91056399 125.51528287 8.361938 127.92411282 7.24487305 132.7878418 C7.03580618 136.49012017 7.05097403 140.10706982 7.1875 143.8125 C7.23978796 146.30829365 7.27567964 148.8044998 7.29296875 151.30078125 C7.3293042 152.39559814 7.36563965 153.49041504 7.40307617 154.6184082 C7 157.5 7 157.5 5.2043457 159.85620117 C2.01855329 162.23187293 -0.13495063 162.062189 -4 161.5 C-6.32251009 159.24724236 -6.9533928 157.85177216 -7.38031673 154.62952423 C-7.38274663 153.51013206 -7.38517653 152.3907399 -7.38768005 151.23742676 C-7.39758469 149.95034317 -7.40748932 148.66325958 -7.41769409 147.33717346 C-7.41345608 145.9129324 -7.40889822 144.48869225 -7.40405273 143.06445312 C-7.40975559 141.56297802 -7.41671953 140.06150725 -7.42485046 138.56004333 C-7.44280519 134.48363292 -7.44160934 130.40743747 -7.43590808 126.33099937 C-7.43281996 122.92874552 -7.43890438 119.52653318 -7.44494683 116.12428522 C-7.45899766 108.09926055 -7.45742577 100.07434233 -7.44604492 92.04931641 C-7.43455913 83.7672076 -7.44864572 75.48542243 -7.4754414 67.20335627 C-7.49758225 60.09411921 -7.50423955 52.98498387 -7.49836498 45.87571478 C-7.49499079 41.62894281 -7.49744112 37.38237839 -7.51461601 33.13563538 C-7.53005782 29.14314973 -7.52616084 25.15114453 -7.50731087 21.15867805 C-7.50361745 19.69292863 -7.5067554 18.22714382 -7.51719666 16.76142693 C-7.5303543 14.76184522 -7.5164834 12.76213988 -7.50120544 10.76257324 C-7.50099616 9.64318108 -7.50078688 8.52378891 -7.50057125 7.37047577 C-6.69704987 2.7627628 -4.56665681 0.76110947 0 0 Z " fill="#28B5E8" transform="translate(1082,49.5)"/>
<path d="M0 0 C11.30298976 11.71757819 16.32219874 27.43931305 16.19335938 43.47265625 C15.6452699 59.21266167 9.36331546 74.13353961 -2.2265625 84.97265625 C-15.62322576 96.12876259 -30.20219386 99.29328983 -47.2265625 97.97265625 C-61.79352138 95.40837717 -73.98666614 86.855071 -82.421875 74.84765625 C-91.06905782 61.25445005 -94.15265491 45.87083224 -91.5390625 29.91015625 C-88.22972669 15.65455582 -80.1311267 0.92240709 -67.51806641 -7.11621094 C-44.30427157 -20.35429703 -19.81350962 -18.04072192 0 0 Z M-71.2265625 16.97265625 C-78.02938308 27.92605849 -79.84546208 39.34342092 -77.1015625 51.91015625 C-73.76206124 64.05095989 -67.25489685 73.57435413 -56.3046875 79.90625 C-47.37331466 84.48945448 -38.03137849 85.50894761 -28.1640625 83.28125 C-17.34843602 79.69106288 -7.89868493 72.11693404 -2.6484375 61.90234375 C2.2109679 50.53580353 3.98677284 38.29675006 -0.1796875 26.34765625 C-5.2044549 14.94818394 -12.12679917 6.74861719 -23.2265625 0.97265625 C-42.44223786 -6.43202733 -59.30008971 1.13879516 -71.2265625 16.97265625 Z " fill="#28B5E8" transform="translate(645.2265625,113.02734375)"/>
<path d="M0 0 C2.89085151 2.31268121 3.22013498 4.73541502 3.6875 8.25 C3.790625 9.4875 3.89375 10.725 4 12 C5.36125 10.6696875 5.36125 10.6696875 6.75 9.3125 C17.03679395 0.43514408 29.80877099 -0.70796076 42.7734375 -0.17480469 C54.22179635 0.72399191 63.61739316 7.17150847 71.3125 15.3125 C78.44255233 23.76773377 82.23450228 33.35994181 82.2746582 44.44824219 C82.27976913 45.15645615 82.28488007 45.8646701 82.29014587 46.59434509 C82.30393465 48.91194331 82.30309449 51.22924091 82.30078125 53.546875 C82.30467167 55.1663626 82.30900706 56.78584919 82.31376648 58.40533447 C82.32120377 61.78767214 82.32095379 65.16990534 82.31567383 68.55224609 C82.30985642 72.88907436 82.32687652 77.22547869 82.3500185 81.56223679 C82.36473053 84.90106712 82.36563147 88.23979443 82.36250877 91.57865143 C82.36302241 93.17826432 82.36826808 94.77788291 82.37832069 96.37746429 C82.3906307 98.60837234 82.3839291 100.83844176 82.37231445 103.06933594 C82.37294388 104.33839783 82.3735733 105.60745972 82.3742218 106.91497803 C82 110 82 110 80.69548035 111.909729 C77.82527 113.75540483 75.29664309 113.35321176 72 113 C69.89641619 111.45737187 69.15945841 110.31891683 68 108 C67.89974924 105.86771709 67.86438962 103.73228543 67.8581543 101.59765625 C67.85467987 100.94043076 67.85120544 100.28320526 67.84762573 99.60606384 C67.84026605 98.17594247 67.8349218 96.74580964 67.83133507 95.31567383 C67.82416139 93.04434009 67.80848438 90.77322139 67.78999329 88.50195312 C67.73759402 82.04283762 67.68963885 75.58383477 67.67407227 69.12451172 C67.66392598 65.17324368 67.63442695 61.22250979 67.59275246 57.27145386 C67.58052249 55.77257347 67.57530642 54.27361732 67.57755089 52.77468872 C67.59011349 41.63732349 66.59905364 31.98547663 58.703125 23.53125 C50.9142959 16.52844952 42.87975296 14.50636232 32.5390625 14.69140625 C24.75500825 15.37014829 18.51273449 18.48149979 12.82421875 23.80078125 C6.79050048 31.07483561 3.89397758 39.23573822 3.84228516 48.54101562 C3.83720444 49.18866379 3.83212372 49.83631195 3.82688904 50.50358582 C3.8162166 51.90530562 3.80758425 53.30704214 3.80076981 54.70878601 C3.78894545 56.92822066 3.76948561 59.14746381 3.74765015 61.36682129 C3.68613943 67.67530963 3.63194579 73.98377503 3.59863281 80.29248047 C3.57768931 84.1551899 3.54239538 88.01754417 3.49787521 91.88005066 C3.48371925 93.35039594 3.47499367 94.82080399 3.47182083 96.29121399 C3.46691225 98.34751607 3.44376013 100.40287416 3.41650391 102.45898438 C3.40841705 103.62828491 3.4003302 104.79758545 3.39199829 106.00231934 C2.96127382 109.29614597 2.38331587 110.71035608 0 113 C-3.73477176 113.54323953 -5.97343807 113.66031952 -9.19229126 111.58984375 C-11.97867991 107.59787808 -11.54202003 103.82029707 -11.48583984 99.0625 C-11.48963654 98.05396973 -11.49343323 97.04543945 -11.49734497 96.00634766 C-11.50475806 92.67058271 -11.48335663 89.33568763 -11.4609375 86 C-11.45855343 83.68359479 -11.45764768 81.36718763 -11.4581604 79.05078125 C-11.45503107 74.19518943 -11.43845519 69.33989261 -11.41162109 64.484375 C-11.37764131 58.25651098 -11.36999246 52.02897125 -11.37151146 45.80102539 C-11.37096791 41.01754656 -11.3600031 36.2341388 -11.34550858 31.45068359 C-11.33913871 29.15413959 -11.33520124 26.85758752 -11.33372116 24.56103516 C-11.32939025 21.35305025 -11.31189334 18.14541081 -11.29052734 14.9375 C-11.29143372 13.98568848 -11.29234009 13.03387695 -11.29327393 12.05322266 C-11.28474396 11.17843262 -11.27621399 10.30364258 -11.26742554 9.40234375 C-11.26407385 8.64429443 -11.26072216 7.88624512 -11.25726891 7.10522461 C-10.96048222 4.67662708 -10.28596508 3.07390006 -9 1 C-5.9167365 -0.54163175 -3.39121901 -0.29747535 0 0 Z " fill="#28B4E8" transform="translate(454,98)"/>
<path d="M0 0 C2.61833569 2.77275036 3.49876512 4.33201617 3.8359375 8.17578125 C3.7328125 9.31015625 3.6296875 10.44453125 3.5234375 11.61328125 C0.5234375 13.61328125 0.5234375 13.61328125 -2.328125 13.48046875 C-5.92759985 12.48905012 -7.94744 11.06328255 -10.8515625 8.73828125 C-19.58190712 2.19052279 -26.4516173 0.42353896 -37.4765625 1.61328125 C-44.59950487 3.40849437 -49.60924206 6.38057013 -53.7890625 12.55078125 C-54.75579329 15.45097361 -54.84897744 17.57189257 -54.4765625 20.61328125 C-49.29175733 30.7359961 -31.03496594 33.57151026 -21.12695312 36.77539062 C-11.39448777 40.02295526 -2.34421057 43.70508044 4.5234375 51.61328125 C5.0803125 52.25265625 5.6371875 52.89203125 6.2109375 53.55078125 C10.55245059 60.37315897 10.31684553 68.25777702 9.1640625 76.0390625 C7.0051642 84.25162832 0.51569001 90.83573983 -6.3515625 95.55078125 C-18.76100327 102.38566855 -33.85270952 102.26611379 -47.3515625 99.05078125 C-56.32829863 96.33172691 -65.00270173 92.49614526 -70.4765625 84.61328125 C-70.96447553 81.68580307 -70.87370555 80.31412193 -69.4140625 77.73828125 C-67.02566464 76.35146959 -65.38123716 76.39376564 -62.6953125 76.89453125 C-59.80829868 77.82976108 -57.23608599 79.16140551 -54.5390625 80.55078125 C-44.22263266 85.86183217 -33.85719584 87.50403389 -22.2734375 84.890625 C-15.9566633 82.75914518 -10.48633212 80.17605467 -7.1015625 74.17578125 C-5.99539733 69.64050404 -5.89129824 66.80819579 -7.9765625 62.55078125 C-13.48014172 56.08407566 -20.80285646 53.51884443 -28.7265625 51.05078125 C-29.65243164 50.75123535 -30.57830078 50.45168945 -31.53222656 50.14306641 C-35.41261425 48.88924587 -39.30244361 47.66760195 -43.1953125 46.453125 C-49.42218667 44.47111737 -54.94621117 42.11393663 -60.4765625 38.61328125 C-61.3840625 38.05640625 -62.2915625 37.49953125 -63.2265625 36.92578125 C-68.48157611 31.52479504 -70.79084534 25.62185024 -71.0390625 18.11328125 C-70.68570162 10.20915626 -68.73306806 3.71662069 -63.3515625 -2.19921875 C-45.24535146 -18.6382626 -17.2536099 -15.83400908 0 0 Z " fill="#28B5E8" transform="translate(414.4765625,110.38671875)"/>
<path d="M0 0 C1.50934217 3.01868434 1.17510672 5.67297229 1 9 C-1 12 -1 12 -4 13 C-6.99602596 13.23046354 -9.99078211 13.38051343 -12.9921875 13.5234375 C-16.47552339 14.07534267 -18.27331169 14.75394828 -21 17 C-24.20080869 22.58882775 -24.68973144 28.09437584 -25.1875 34.4375 C-25.26935547 35.35982422 -25.35121094 36.28214844 -25.43554688 37.23242188 C-25.63418917 39.48759616 -25.82206853 41.74311342 -26 44 C-24.74703125 43.94199219 -23.4940625 43.88398437 -22.203125 43.82421875 C-20.5521206 43.77731522 -18.90107589 43.73181569 -17.25 43.6875 C-16.425 43.64560547 -15.6 43.60371094 -14.75 43.56054688 C-8.62537647 43.43706656 -8.62537647 43.43706656 -5.41796875 46.32421875 C-4 49 -4 49 -4.0625 52.125 C-5.03072231 55.09421509 -5.59588114 56.11338433 -8 58 C-9.99291992 58.34057617 -9.99291992 58.34057617 -12.23046875 58.29296875 C-13.03291016 58.28330078 -13.83535156 58.27363281 -14.66210938 58.26367188 C-15.49548828 58.23853516 -16.32886719 58.21339844 -17.1875 58.1875 C-18.4549707 58.16719727 -18.4549707 58.16719727 -19.74804688 58.14648438 C-21.83230384 58.11115799 -23.91623277 58.05735139 -26 58 C-25.99333817 59.22108963 -25.98667633 60.44217926 -25.97981262 61.70027161 C-25.91906927 73.19261839 -25.87405995 84.68493272 -25.84456348 96.17740345 C-25.82888942 102.0861917 -25.80761927 107.99485064 -25.77368164 113.90356445 C-25.74115046 119.60289981 -25.72316011 125.30211058 -25.71536827 131.0015316 C-25.70981354 133.17891083 -25.6989669 135.35628303 -25.68280983 137.53360939 C-25.66111869 140.57700102 -25.65802961 143.61987393 -25.65942383 146.66333008 C-25.648638 147.56891663 -25.63785217 148.47450317 -25.6267395 149.40753174 C-25.63292549 150.65059837 -25.63292549 150.65059837 -25.63923645 151.91877747 C-25.63647107 152.63869779 -25.63370569 153.35861811 -25.63085651 154.10035419 C-26.11186005 156.57564193 -27.0538988 157.44443655 -29 159 C-32.28964898 160.21197594 -33.52498292 160.21591686 -36.75 158.75 C-39 157 -39 157 -40 154 C-40.08777496 152.66718729 -40.12200053 151.33040394 -40.12025452 149.9947052 C-40.12162918 149.18282242 -40.12300385 148.37093964 -40.12442017 147.53445435 C-40.12082489 146.64756927 -40.11722961 145.7606842 -40.11352539 144.84692383 C-40.11367142 143.91014297 -40.11381744 142.97336212 -40.1139679 142.00819397 C-40.1132705 138.90778295 -40.10548617 135.80743179 -40.09765625 132.70703125 C-40.09579146 130.55897555 -40.09436784 128.41091943 -40.09336853 126.26286316 C-40.0895482 120.60591459 -40.07972201 114.94899165 -40.06866455 109.29205322 C-40.05844005 103.52087755 -40.05386868 97.74969774 -40.04882812 91.97851562 C-40.03809934 80.65233248 -40.02102869 69.32616837 -40 58 C-41.66289063 58.08701172 -41.66289063 58.08701172 -43.359375 58.17578125 C-44.82287452 58.22268829 -46.28641963 58.26818745 -47.75 58.3125 C-48.47960937 58.35439453 -49.20921875 58.39628906 -49.9609375 58.43945312 C-53.87752525 58.52846648 -55.593803 58.37470886 -58.51953125 55.67578125 C-60 53 -60 53 -59.9375 49.875 C-58.59994409 45.77316187 -58.59994409 45.77316187 -56 44 C-53.18872957 43.78285759 -50.6116655 43.71715724 -47.8125 43.8125 C-46.68811523 43.83280273 -46.68811523 43.83280273 -45.54101562 43.85351562 C-43.69370233 43.88881461 -41.84675934 43.94262083 -40 44 C-40.02320313 43.22398438 -40.04640625 42.44796875 -40.0703125 41.6484375 C-40.26843398 29.78945184 -40.27213334 16.96483762 -33 7 C-25.7798658 -0.14569982 -9.32167629 -6.71160693 0 0 Z " fill="#28B5E8" transform="translate(893,52)"/>
<path d="M0 0 C4.91482147 1.4724232 7.53774513 4.11858729 10.90600586 7.87060547 C12.60745919 9.53907316 14.31486299 11.20148705 16.02709961 12.85888672 C17.80184882 14.6310125 19.57394989 16.40579396 21.34350586 18.18310547 C22.25293945 19.08867187 23.16237305 19.99423828 24.09936523 20.92724609 C24.96239258 21.7915625 25.82541992 22.65587891 26.71459961 23.54638672 C27.88720337 24.72068237 27.88720337 24.72068237 29.08349609 25.91870117 C32.0026131 29.04506961 32.19289627 31.28669117 32.40600586 35.49560547 C32.51428711 36.99994141 32.51428711 36.99994141 32.62475586 38.53466797 C31.53500206 43.59254701 28.4772973 46.25866778 24.90600586 49.87060547 C24.10791504 50.69367188 23.30982422 51.51673828 22.48754883 52.36474609 C19.87664007 55.0336971 17.23934822 57.6738086 14.59350586 60.30810547 C13.23515625 61.67225586 13.23515625 61.67225586 11.84936523 63.06396484 C10.98504883 63.92699219 10.12073242 64.79001953 9.23022461 65.67919922 C8.44736084 66.46093506 7.66449707 67.2426709 6.85791016 68.0480957 C3.73154171 70.9672127 1.48992016 71.15749588 -2.71899414 71.37060547 C-4.22333008 71.47888672 -4.22333008 71.47888672 -5.75805664 71.58935547 C-10.82071577 70.49857177 -13.47482295 67.442529 -17.09399414 63.87060547 C-17.94799805 63.04689453 -18.80200195 62.22318359 -19.68188477 61.37451172 C-22.48832642 58.64575014 -25.26267627 55.88750454 -28.03149414 53.12060547 C-28.99819223 52.16607833 -29.96498853 51.21165064 -30.93188477 50.25732422 C-31.8400293 49.35111328 -32.74817383 48.44490234 -33.68383789 47.51123047 C-34.50746826 46.69170898 -35.33109863 45.8721875 -36.1796875 45.02783203 C-39.2401306 41.57902763 -39.24609971 38.4919134 -39.42211914 34.00341797 C-38.28249271 26.5958462 -30.48979237 20.5575198 -25.47338867 15.38500977 C-24.30783436 14.17128267 -23.15589687 12.9443246 -22.01831055 11.7043457 C-10.2257928 -1.13491594 -10.2257928 -1.13491594 0 0 Z M-6.12915039 25.19873047 C-6.79817383 25.83294922 -7.46719727 26.46716797 -8.15649414 27.12060547 C-8.8280957 27.74451172 -9.49969727 28.36841797 -10.19165039 29.01123047 C-10.81942383 29.62482422 -11.44719727 30.23841797 -12.09399414 30.87060547 C-12.69083008 31.33982422 -13.28766602 31.80904297 -13.90258789 32.29248047 C-15.34686739 33.86347062 -15.34686739 33.86347062 -15.02368164 36.29248047 C-13.91969692 39.3539507 -12.55906306 40.87482504 -10.21899414 43.12060547 C-9.52032227 43.80638672 -8.82165039 44.49216797 -8.10180664 45.19873047 C-6.10208932 47.07015308 -6.10208932 47.07015308 -3.09399414 47.87060547 C-1.05537421 46.54372071 -1.05537421 46.54372071 0.90600586 44.62060547 C1.58663086 43.99669922 2.26725586 43.37279297 2.96850586 42.72998047 C3.60788086 42.11638672 4.24725586 41.50279297 4.90600586 40.87060547 C5.48092773 40.35498047 6.05584961 39.83935547 6.64819336 39.30810547 C8.19367654 37.84334069 8.19367654 37.84334069 8.03100586 35.12060547 C6.4714658 30.61526751 3.69888117 27.72115151 -0.09399414 24.87060547 C-2.84092749 23.61657068 -3.56420654 23.52487076 -6.12915039 25.19873047 Z " fill="#28B5E8" transform="translate(154.093994140625,119.12939453125)"/>
<path d="M0 0 C3.73393432 0.62232239 4.69010222 1.54392444 7 4.5 C7.50336456 7.37047577 7.50336456 7.37047577 7.50793457 10.76257324 C7.51921387 12.04965683 7.53049316 13.33674042 7.54211426 14.66282654 C7.53433722 16.0870689 7.52614456 17.51130904 7.51757812 18.93554688 C7.52299887 20.43702371 7.53012127 21.93849523 7.53881836 23.43995667 C7.55706053 27.51643719 7.54998068 31.59251298 7.53730202 35.66900063 C7.5271789 39.9339266 7.53656578 44.19881779 7.54284668 48.46374512 C7.55012511 55.62612127 7.54053031 62.78833248 7.52148438 69.95068359 C7.49971518 78.23280478 7.50676642 86.5145321 7.52879 94.79664373 C7.54693849 101.90589187 7.54950504 109.0150214 7.53903532 116.12428522 C7.53279733 120.37104404 7.53197307 124.61761769 7.54518127 128.86436462 C7.55673123 132.8568714 7.54873018 136.8488701 7.52560425 140.84132195 C7.52031251 142.30706374 7.52183894 143.77284824 7.53065491 145.23857307 C7.54157368 147.2381755 7.52545758 149.2378713 7.50793457 151.23742676 C7.50642647 152.35681892 7.50491837 153.47621109 7.50336456 154.62952423 C6.88117366 158.17761649 5.85981359 159.36460308 3 161.5 C-2.92241442 162.22731405 -2.92241442 162.22731405 -5.69061375 160.35892391 C-7.59021745 157.66207358 -7.38061073 155.60051324 -7.38768005 152.31971741 C-7.39758469 151.02559433 -7.40748932 149.73147125 -7.41769409 148.39813232 C-7.4134558 146.96081449 -7.40889791 145.52349756 -7.40405273 144.08618164 C-7.40975393 142.57500197 -7.41671721 141.06382662 -7.42485046 139.55265808 C-7.44282528 135.44519827 -7.44160539 131.33795158 -7.43590808 127.23046422 C-7.43282233 123.80340734 -7.43890185 120.37639177 -7.44494683 116.94934076 C-7.45900475 108.8653623 -7.45742037 100.78148948 -7.44604492 92.69750977 C-7.43456314 84.35350661 -7.44863738 76.00982485 -7.4754414 67.66586405 C-7.49758271 60.50569233 -7.50423931 53.3456216 -7.49836498 46.18541807 C-7.49499033 41.90733265 -7.49744395 37.62945325 -7.51461601 33.35139656 C-7.53005816 29.32855672 -7.52616043 25.30619369 -7.50731087 21.28337288 C-7.5036173 19.80633639 -7.50675583 18.32926479 -7.51719666 16.85226059 C-7.53035354 14.83729838 -7.51648389 12.82221348 -7.50120544 10.80726624 C-7.50099616 9.67920091 -7.50078688 8.55113558 -7.50057125 7.38888645 C-6.70008 2.7691079 -4.58020531 0.76336755 0 0 Z " fill="#28B4E8" transform="translate(920,49.5)"/>
</svg>
