<svg width="256" height="27" viewBox="0 0 256 27" fill="none" xmlns="http://www.w3.org/2000/svg">
<path d="M26.0773 0.0838413C20.518 0.753023 15.9538 4.81959 14.6669 10.2417C14.3238 11.683 14.3409 14.5485 14.6841 16.0927C15.8337 21.206 20.0375 25.2039 25.288 26.1648C26.7122 26.4222 29.4919 26.302 30.9675 25.9074C34.5022 24.9465 37.728 22.287 39.2894 19.044C40.3875 16.7619 40.5763 15.9211 40.5763 13.2101C40.5763 11.1682 40.5076 10.6192 40.1816 9.52102C39.4438 7.18746 38.5173 5.66036 36.8014 3.92735C35.463 2.58898 34.9654 2.22865 33.507 1.49084C31.0705 0.272585 28.531 -0.207853 26.0773 0.0838413ZM30.0066 3.18953C31.7396 3.61849 33.3011 4.52789 34.7424 5.98637C36.2352 7.47916 36.9902 8.78321 37.4877 10.6363C37.8309 11.9575 37.8138 14.4112 37.4706 15.7667C36.5612 19.2842 33.4898 22.3384 30.0066 23.162C23.9668 24.5862 18.03 20.4681 17.3265 14.3597C16.8804 10.4304 18.6649 6.68987 22.0279 4.52789C24.3786 2.98363 27.1926 2.52035 30.0066 3.18953Z" fill="#7DD8E6"/>
<path d="M237.263 0.444826C232.973 1.01106 229.885 3.87653 228.443 8.57796C228.014 10.0021 227.963 10.3453 227.963 13.0392C227.963 15.5443 228.014 16.162 228.358 17.4146C229.816 22.8367 233.488 25.8223 238.756 25.8223C241.261 25.8223 243.303 25.0844 244.761 23.6775L245.533 22.9225V23.9863C245.533 25.2904 245.756 25.6507 246.666 25.7708C247.18 25.8394 247.438 25.7708 247.764 25.5134L248.193 25.1702V19.8683C248.193 14.1545 248.141 13.7598 247.266 13.1764C246.889 12.9191 246.357 12.8676 243.749 12.8161C242.067 12.7818 240.506 12.799 240.3 12.8504C239.631 13.022 239.356 13.4338 239.356 14.2403C239.356 15.4242 239.631 15.5272 242.651 15.5272C245.653 15.5272 245.636 15.51 245.482 17.4832C245.293 19.7482 244.006 21.5841 241.947 22.5278C240.712 23.0941 238.412 23.2485 236.902 22.8538C234.174 22.1332 232.304 20.057 231.429 16.7626C230.948 14.8923 230.948 11.3405 231.446 9.4702C232.167 6.742 233.625 4.80309 235.701 3.80789C236.714 3.32746 237.091 3.25882 238.533 3.20735C241.209 3.1044 242.994 3.89369 244.092 5.64386C245.344 7.6514 245.242 7.54845 246.031 7.59993C246.889 7.66856 247.524 7.32539 247.781 6.65621C248.038 5.96987 247.163 4.30549 245.842 3.00144C243.766 0.959582 240.557 -0.00129497 237.263 0.444826Z" fill="white"/>
<path d="M63.0692 0.958487L62.623 1.30166V9.82944C62.623 19.198 62.6574 19.5755 63.6697 21.5659C64.3389 22.8871 65.6773 24.2426 66.9127 24.8431C69.0575 25.8726 71.82 26.2158 74.4624 25.7525C78.2545 25.1005 80.4164 23.1788 81.4459 19.5583C81.6862 18.6661 81.7376 17.4135 81.8063 10.3785C81.8406 5.90014 81.8234 1.988 81.7548 1.66199C81.6175 0.941328 80.7939 0.495207 79.8845 0.666792C78.7177 0.889853 78.752 0.649634 78.752 9.43479C78.752 17.9797 78.6663 18.9749 77.8255 20.3991C76.5729 22.5267 73.9477 23.5391 70.8934 23.093C68.5084 22.7326 67.1357 21.8061 66.3293 20.0044C65.6258 18.4258 65.54 17.2934 65.54 9.0573V1.30166L65.0939 0.958487C64.8365 0.752585 64.3904 0.598158 64.0815 0.598158C63.7727 0.598158 63.3265 0.752585 63.0692 0.958487Z" fill="white"/>
<path d="M105.897 0.924779C104.73 1.67975 104.541 3.24118 105.502 4.21921C106.909 5.62621 109.26 4.49375 109.071 2.50336C108.917 0.976255 107.201 0.118329 105.897 0.924779Z" fill="white"/>
<path d="M197.694 0.769895C197.488 0.855687 197.231 1.13022 197.145 1.3876C197.025 1.6793 196.991 5.95176 197.008 13.3986C197.06 24.2256 197.077 24.9634 197.368 25.2551C197.797 25.6841 199.05 25.6669 199.53 25.2379C199.891 24.9119 199.891 24.8948 199.891 13.1069V1.30181L199.445 0.958638C198.964 0.581151 198.346 0.512517 197.694 0.769895Z" fill="white"/>
<path d="M213.017 0.906945C212.742 1.07853 212.416 1.33591 212.296 1.47318C211.936 1.9193 203.322 23.7621 203.322 24.2597C203.322 25.272 204.901 26.0098 205.707 25.3578C205.982 25.1348 206.497 23.9851 207.355 21.6859L208.607 18.3572L214.098 18.3057L219.589 18.2714L220.258 20.0215C220.635 20.9996 221.236 22.5438 221.596 23.4704C222.334 25.3921 222.694 25.7525 223.707 25.598C224.359 25.4951 225.114 24.8259 225.114 24.3626C225.114 24.2254 223.14 19.1121 220.721 13.0037C215.814 0.615251 215.899 0.786835 214.355 0.649567C213.755 0.598092 213.394 0.666726 213.017 0.906945ZM216.534 10.0353C217.564 12.7292 218.439 15.0627 218.508 15.2171C218.628 15.5088 218.353 15.526 214.149 15.526C211.678 15.526 209.671 15.4917 209.671 15.4574C209.671 15.423 210.512 13.2439 211.541 10.6187C212.554 7.97625 213.532 5.40247 213.703 4.88772C214.132 3.54936 214.166 3.5322 214.441 4.37296C214.578 4.80193 215.522 7.34139 216.534 10.0353Z" fill="white"/>
<path d="M253.528 0.959359L253.082 1.30253V13.1076C253.082 24.8955 253.082 24.9126 253.442 25.2387C253.94 25.6848 255.141 25.6848 255.639 25.2387C255.999 24.9126 255.999 24.8955 255.999 13.1076V1.30253L255.553 0.959359C255.295 0.753457 254.849 0.599031 254.541 0.599031C254.232 0.599031 253.786 0.753457 253.528 0.959359Z" fill="white"/>
<path d="M5.57128 9.28079C2.92887 10.6363 0.595315 11.9404 0.372254 12.1977C-0.0738669 12.6953 -0.125342 13.5533 0.252145 14.1023C0.560998 14.5485 10.4271 19.6445 10.9762 19.6445C11.5253 19.6445 12.3489 18.7523 12.3489 18.1517C12.3489 17.3624 11.6969 16.8992 7.93916 15.0289C6.0174 14.068 4.45598 13.2616 4.45598 13.2101C4.45598 13.1758 6.12036 12.2835 8.14506 11.2369C10.1698 10.1902 11.9542 9.16068 12.0915 8.95478C12.7264 8.04538 12.04 6.75849 10.9419 6.79281C10.5816 6.80997 8.65981 7.70221 5.57128 9.28079Z" fill="#7DD8E6"/>
<path d="M43.1485 7.20477C42.5823 7.75385 42.5651 8.64609 43.1142 9.12653C43.3201 9.31527 45.0874 10.2933 47.0607 11.3057C49.0167 12.318 50.6125 13.1759 50.6125 13.2274C50.6125 13.2617 48.9138 14.1368 46.8376 15.1835C44.6928 16.2473 42.9941 17.2082 42.8911 17.3969C42.6166 17.9288 42.6852 18.6838 43.0627 19.0956C43.8349 19.9192 43.9893 19.8849 49.3256 17.1567C52.0538 15.7669 54.4388 14.4971 54.6104 14.3256C55.108 13.8623 55.1766 12.7813 54.7648 12.2494C54.3187 11.7003 44.6585 6.77581 44.0236 6.77581C43.7662 6.77581 43.3716 6.96455 43.1485 7.20477Z" fill="#7DD8E6"/>
<path d="M93.628 7.65079C92.1696 7.99396 90.4537 9.28085 89.613 10.6535C89.4585 10.9109 89.4242 10.7736 89.51 9.86424C89.5958 8.83473 89.5615 8.6803 89.2011 8.28565C88.6178 7.63363 87.5711 7.565 86.9877 8.14839C86.6617 8.4744 86.6445 8.71462 86.6445 16.6933C86.6445 24.2945 86.6617 24.9294 86.9534 25.1868C87.6912 25.856 89.0982 25.6501 89.4071 24.8436C89.4928 24.6206 89.5615 22.1326 89.5615 19.3357C89.5615 14.3254 89.5786 14.2225 89.9733 13.3817C90.8827 11.46 92.4956 10.2589 94.4002 10.0701C96.0989 9.91571 97.2656 10.5677 97.9177 12.0091C98.175 12.6096 98.2265 13.3989 98.2608 18.6151C98.2952 21.8752 98.3638 24.7063 98.3981 24.9122C98.4496 25.1525 98.6898 25.3584 99.0845 25.4785C99.9595 25.7702 100.8 25.4613 101.041 24.7578C101.281 24.0715 101.281 14.0166 101.058 12.3522C100.715 9.95003 99.3933 8.31997 97.2828 7.73658C96.2361 7.44489 94.6747 7.41057 93.628 7.65079Z" fill="white"/>
<path d="M135.428 7.71911C131.602 8.8001 129.543 11.9058 129.543 16.6244C129.56 21.4631 131.482 24.483 135.274 25.564C136.698 25.9758 139.546 25.8557 140.902 25.3237C142.549 24.6889 144.814 22.2524 144.814 21.1371C144.814 20.588 144.042 19.9875 143.304 19.9875C142.583 19.9875 142.154 20.3306 141.674 21.2915C141.297 22.0465 140.147 23.0245 139.358 23.2647C138.242 23.5907 136.115 23.402 135.119 22.8872C133.678 22.1494 132.649 20.3993 132.374 18.2373L132.254 17.2592L138.208 17.2078L144.162 17.1563L144.574 16.6759C145.277 15.8522 145.071 13.8275 144.025 11.6484C143.287 10.0698 141.691 8.52556 140.233 7.97649C138.946 7.47889 136.681 7.35879 135.428 7.71911ZM139.443 10.2243C140.782 10.8591 142.069 12.901 142.069 14.3251V14.8399H137.247H132.426L132.546 14.1879C132.7 13.2785 133.421 11.7514 133.97 11.168C135.171 9.89825 137.813 9.43497 139.443 10.2243Z" fill="white"/>
<path d="M155.881 7.63316C154.371 7.85622 153.067 8.67983 152.226 9.94956L151.711 10.7389L151.797 9.7265C151.883 8.85142 151.849 8.67983 151.471 8.25087C150.991 7.68464 150.047 7.59885 149.361 8.04497L148.932 8.3195V16.6242C148.932 24.4142 148.949 24.9289 149.24 25.1863C149.721 25.6324 150.527 25.7182 151.145 25.4094C151.437 25.255 151.694 25.1005 151.711 25.0834C151.728 25.0662 151.78 22.5782 151.831 19.5583L151.934 14.0676L152.449 13.1582C153.084 11.9914 154.337 10.859 155.297 10.5673C155.795 10.4128 156.447 10.3785 157.356 10.4643L158.695 10.5844L159.055 10.001C159.518 9.24606 159.45 8.37098 158.884 7.95917C158.369 7.59885 157.048 7.44442 155.881 7.63316Z" fill="white"/>
<path d="M165.695 7.73654C164.46 8.02823 163.842 8.33709 162.967 9.14354C162.023 10.0015 161.629 10.8937 161.629 12.2664C161.629 13.9308 161.886 14.6343 162.83 15.5437C163.825 16.5217 164.837 16.9163 167.995 17.5855C171.495 18.3062 172.507 18.9925 172.507 20.6397C172.507 22.2526 171.272 23.1964 168.938 23.3679C166.553 23.5567 165.06 22.8875 164.305 21.2918C163.636 19.8676 162.898 19.5073 161.817 20.0735C160.977 20.5025 160.891 21.206 161.56 22.5272C162.126 23.6596 163.448 24.8436 164.614 25.2897C166.776 26.0961 169.865 26.0961 172.01 25.2897C173.125 24.8779 174.395 23.7969 174.875 22.836C175.338 21.9438 175.476 20.1593 175.184 18.941C175.012 18.2375 174.772 17.8429 174.154 17.2252C173.194 16.2643 172.233 15.8697 168.784 15.0804C165.078 14.2396 164.511 13.8793 164.477 12.3522C164.443 10.9109 165.592 10.0358 167.72 9.89851C169.693 9.7784 171.066 10.3961 171.666 11.7002C172.061 12.5581 172.37 12.7811 173.142 12.7811C173.931 12.7811 174.669 12.2321 174.669 11.6487C174.669 10.6363 173.365 8.97195 172.061 8.30277C170.448 7.47916 167.737 7.23894 165.695 7.73654Z" fill="white"/>
<path d="M183.797 7.63433C181.841 8.04614 180.126 9.28155 179.388 10.7915C179.01 11.5636 178.976 11.7695 179.148 12.147C179.371 12.6446 180.108 13.0049 180.863 12.9878C181.533 12.9706 181.773 12.7647 182.219 11.821C182.682 10.8601 183.231 10.4483 184.432 10.1052C185.599 9.76199 187.487 9.86494 188.276 10.3454C189.22 10.8945 189.597 11.6323 189.597 12.9706V14.1374L188.876 14.2232C188.465 14.2747 187.452 14.3433 186.594 14.3948C181.395 14.6693 178.444 16.6769 178.152 20.1429C177.964 22.4078 178.924 24.2781 180.743 25.2046C181.584 25.6336 181.979 25.7366 183.317 25.788C185.771 25.891 187.727 25.2561 188.996 23.9349C189.271 23.6604 189.546 23.4202 189.614 23.4202C189.666 23.4202 189.769 23.7633 189.803 24.1923C189.854 24.6213 189.992 25.0845 190.112 25.2218C190.455 25.6336 191.45 25.7366 192.119 25.4105C192.703 25.136 192.72 25.1017 192.617 24.3982C192.548 24.0036 192.445 20.8121 192.377 17.3289C192.257 11.1347 192.239 10.9631 191.845 10.1566C190.987 8.42362 189.357 7.63433 186.423 7.53138C185.393 7.49707 184.209 7.54854 183.797 7.63433ZM189.597 18.1353C189.597 20.0743 189.305 20.7778 188.156 21.8416C187.109 22.8025 186.028 23.2657 184.535 23.3687C183.506 23.4373 183.231 23.3858 182.579 23.0427C181.601 22.5451 181.172 21.9445 181.069 20.9665C180.743 18.1697 183.231 16.6597 188.362 16.5739L189.597 16.5568V18.1353Z" fill="white"/>
<path d="M106.463 7.82255C106.189 7.90835 105.846 8.09709 105.743 8.26867C105.571 8.49174 105.52 10.4478 105.52 16.6592C105.52 24.3805 105.537 24.7752 105.846 25.1526C106.103 25.4787 106.343 25.5645 106.978 25.5645C107.613 25.5645 107.853 25.4787 108.11 25.1526C108.419 24.7752 108.436 24.3805 108.436 16.6592C108.436 10.4478 108.385 8.49174 108.231 8.26867C107.922 7.87403 107.081 7.65097 106.463 7.82255Z" fill="white"/>
<path d="M112.245 7.92503C111.834 8.07946 111.525 8.93738 111.679 9.45214C111.868 10.1042 117.273 23.7967 117.65 24.5688C118.114 25.5468 119.28 25.89 120.361 25.3752C121.048 25.0492 120.842 25.5125 124.634 15.8179C127.482 8.55989 127.465 8.66285 126.641 8.02798C126.212 7.70197 125.011 7.75344 124.685 8.11377C124.325 8.50842 120.773 18.1 120.035 20.6566C119.726 21.7205 119.418 22.5441 119.383 22.4583C119.332 22.3725 119.092 21.5832 118.834 20.7081C118.182 18.4089 114.493 8.49126 114.15 8.11377C113.875 7.82208 112.794 7.70197 112.245 7.92503Z" fill="white"/>
</svg>
