<svg width="56" height="56" viewBox="0 0 56 56" fill="none" xmlns="http://www.w3.org/2000/svg">
<g transform="translate(0, 14.5)">
<path d="M26.0773 0.0828648C20.518 0.752047 15.9538 4.81861 14.6669 10.2407C14.3238 11.682 14.3409 14.5475 14.6841 16.0918C15.8337 21.205 20.0375 25.2029 25.288 26.1638C26.7122 26.4212 29.4919 26.3011 30.9675 25.9064C34.5022 24.9455 37.728 22.286 39.2894 19.043C40.3875 16.7609 40.5763 15.9202 40.5763 13.2091C40.5763 11.1673 40.5076 10.6182 40.1816 9.52004C39.4438 7.18649 38.5173 5.65938 36.8014 3.92637C35.463 2.58801 34.9654 2.22768 33.507 1.48986C31.0705 0.271608 28.531 -0.20883 26.0773 0.0828648ZM30.0066 3.18855C31.7396 3.61752 33.3011 4.52692 34.7424 5.98539C36.2352 7.47818 36.9902 8.78223 37.4877 10.6353C37.8309 11.9566 37.8138 14.4102 37.4706 15.7657C36.5612 19.2832 33.4898 22.3375 30.0066 23.1611C23.9668 24.5852 18.03 20.4672 17.3265 14.3587C16.8804 10.4294 18.6649 6.68889 22.0279 4.52692C24.3786 2.98265 27.1926 2.51937 30.0066 3.18855Z" fill="#7DD8E6"/>
<path d="M5.57128 9.27982C2.92887 10.6353 0.595315 11.9394 0.372254 12.1968C-0.0738669 12.6944 -0.125342 13.5523 0.252145 14.1014C0.560998 14.5475 10.4271 19.6436 10.9762 19.6436C11.5253 19.6436 12.3489 18.7513 12.3489 18.1508C12.3489 17.3615 11.6969 16.8982 7.93916 15.0279C6.0174 14.067 4.45598 13.2606 4.45598 13.2091C4.45598 13.1748 6.12036 12.2826 8.14506 11.2359C10.1698 10.1892 11.9542 9.15971 12.0915 8.9538C12.7264 8.0444 12.04 6.75751 10.9419 6.79183C10.5816 6.80899 8.65981 7.70123 5.57128 9.27982Z" fill="#7DD8E6"/>
<path d="M43.1485 7.2038C42.5823 7.75287 42.5651 8.64511 43.1142 9.12555C43.3201 9.31429 45.0874 10.2923 47.0607 11.3047C49.0167 12.317 50.6125 13.175 50.6125 13.2264C50.6125 13.2608 48.9138 14.1358 46.8376 15.1825C44.6928 16.2463 42.9941 17.2072 42.8911 17.396C42.6166 17.9279 42.6852 18.6828 43.0627 19.0946C43.8349 19.9183 43.9893 19.8839 49.3256 17.1557C52.0538 15.7659 54.4388 14.4962 54.6104 14.3246C55.108 13.8613 55.1766 12.7803 54.7648 12.2484C54.3187 11.6993 44.6585 6.77483 44.0236 6.77483C43.7662 6.77483 43.3716 6.96358 43.1485 7.2038Z" fill="#7DD8E6"/>
</g>
</svg>
